<svg viewBox="0 0 1080 1080" xmlns="http://www.w3.org/2000/svg"><path d="m808.41 789.5c-9.91 24.79-23.36 48.01-39.65 68.83l217.79 125.74c14.86-21.82 28.31-44.89 39.78-68.83zm-536.82 0-217.93 125.74c11.47 23.94 24.93 47.01 39.79 68.83l217.93-125.74c-16.43-20.82-29.88-44.04-39.79-68.83m-18.55-148.82h-251.62c-.99 13.17-1.42 26.34-1.42 39.79s.42 26.62 1.42 39.65h251.63c-1.98-13.03-2.83-26.2-2.83-39.65s.99-26.76 2.83-39.79m58.33-138.2-217.93-125.74c-14.86 21.8-28.18 44.74-39.79 68.81l217.93 125.74c10.05-24.77 23.51-48 39.79-68.81m50.7-50.7c20.81-16.28 44.04-29.74 68.82-39.78l-125.74-217.93c-23.93 11.47-46.87 24.91-68.82 39.79l125.75 217.92zm177.99-61.17c13.45 0 26.62.85 39.65 2.83v-251.62c-13.03-.99-26.34-1.41-39.65-1.41s-26.62.42-39.79 1.41v251.62c13.03-1.83 26.34-2.83 39.79-2.83m241.72-36.97 125.74-217.92c-21.8-14.86-44.75-28.18-68.67-39.79l-125.89 217.78c24.78 10.06 48 23.5 68.82 39.93m26.62 217.65 217.92-125.74c-11.6-24.07-24.92-47.01-39.78-68.81l-217.94 125.74c16.43 20.81 29.88 44.04 39.8 68.81m271.59 109.18c0-13.45-.42-26.62-1.41-39.79h-251.63c1.84 13.03 2.83 26.34 2.83 39.79s-.85 26.62-2.83 39.65h251.63c.99-13.03 1.41-26.34 1.41-39.65"/></svg>