<svg viewBox="0 0 1000 277.7" xmlns="http://www.w3.org/2000/svg"><path d="m77.7 183.1c0 4.1.3 8.2.9 12.2l-78 .9c-.3-4.1-.6-8.2-.6-12.2s0-8.2.3-12.2l78-.9c-.6 4.1-.9 8.2-.9 12.2z" fill="#114460"/><path d="m97.2 238.1-67.2 39.6c-4.7-6.7-9-13.7-12.5-21.3l67.2-39.6c3.2 7.6 7.3 14.8 12.5 21.3z" fill="#114460"/><path d="m319.1 253.3c-3.5 7.6-7.6 14.6-12.2 21.5l-67.8-38.1c4.9-6.4 9-13.7 11.9-21.5z" fill="#114460"/><path d="m334.8 180.5c0 4.1 0 8.2-.3 12.2l-78 .9c.6-4.1.9-8.2.9-12.2s-.3-8.2-.9-12.2l78-.9c.3 4.1.6 8.2.6 12.2z" fill="#114460"/><path d="m317.6 107.7-67.2 39.6c-3.2-7.6-7.3-14.8-12.5-21.3l67.2-39.6c4.7 6.7 9 13.7 12.5 21.3z" fill="#114460"/><path d="m279.5 11.9-38.1 68.1c-6.4-4.9-13.7-9-21.5-12.2l38.3-67.8c7.6 3.5 14.6 7.6 21.5 12.2l-.3-.3z" fill="#0096d1"/><path d="m177.9 14.8.9 78c-4.1-.6-8.2-.9-12.2-.9s-8.2.3-12.2.9l-.9-78c4.1-.3 8.2-.6 12.2-.6s8.2 0 12.2.3z" fill="#114460"/><path d="m132.8 99.3c-7.6 3.2-14.8 7.6-21.3 12.5l-39.6-67.2c6.7-4.7 13.7-9 21.3-12.5z" fill="#114460"/><path d="m96.1 127.8c-4.9 6.4-9 13.7-12.2 21.5l-68.2-38.1c3.5-7.6 7.6-14.6 12.2-21.5l68.1 38.1z" fill="#114460"/><g fill="#0b2b3d"><path d="m426.2 87h13.7l12.2 16.6c6.1 8.4 19.8 27.7 19.8 27.7s13.7-18.9 19.5-27.4l12.2-16.9h13.7v85.9h-15.7v-59.7s-2.6 4.7-8.4 12.8l-21.3 30.3-21.5-30.6c-5.2-7.6-8.2-12.5-8.2-12.5v59.7h-15.7v-85.9z"/><path d="m559.5 147v-39.9h14.8v37.8c0 10.5 4.7 14.8 14 14.8s15.7-8.4 15.7-17.8v-34.9h14.8v65.5h-14v-10.2c-4.1 7.3-13.4 11.4-21.3 11.4-17.5 0-24.2-9.9-24.2-27.1v.3zm10.5-57c0-4.1 3.5-7.3 7.6-7.3s7.6 3.2 7.6 7.3-3.5 7.3-7.6 7.3-7.6-3.2-7.6-7.3zm23.9 0c0-4.1 3.5-7.3 7.6-7.3s7.6 3.2 7.6 7.3-3.5 7.3-7.6 7.3-7.6-3.2-7.6-7.3z"/><path d="m661.1 107.1h14.8v9.3c4.9-7.3 12.5-10.8 21.5-10.8 18 0 23.9 11.6 23.9 29.1v37.6h-14.8v-35.8c0-10.8-2.3-16.9-13.7-16.9s-16.9 7.6-16.9 18.3v34.4h-14.8v-65.5z"/><path d="m762.4 85.6h14.8v52.4l26.2-30.9h18.3l-26.2 29.1 31.1 36.4h-18l-21.8-26.2-9.3 11.1v15.1h-14.8v-87z"/><path d="m855 140c0-18.9 14.8-34.1 34.4-34.1s32 15.1 32 33.5-.3 5.8-.3 5.8h-50.4c2 10.5 10.8 16 20.7 16s13.7-2 19.2-5.8l5.8 10.8c-7.6 4.9-16.3 7.9-25.3 7.9-18.9 0-35.8-12.5-35.8-34.1zm51.8-5.8c-1.5-9.3-9-15.7-18.3-15.7s-16 6.1-18 15.7h36.4z"/><path d="m961 107.1h14.8v13.1c2.6-6.7 9.9-14.3 24.2-14.3v16c-14.6 0-24.2 7-24.2 24.2v26.8h-14.8z"/><path d="m426.2 258.5c0-7.3 4.4-14 12.2-18-2.9-4.4-4.7-8.4-4.7-13.4 0-7.6 5.5-16 17.5-16s12.8 2 16.6 11.4l-6.1 4.1c-2-5.5-6.1-8.4-10.5-8.4-6.4 0-9.6 4.4-9.6 9s2 8.7 8.7 16l15.7 17.2c1.2-1.5 2.9-4.9 2.9-10.2h7.3c0 6.7-2.6 12.5-4.9 15.4l6.7 7-4.9 4.9-6.7-7c-5.2 4.4-11.6 7-18.6 7-11.4 0-21.8-6.1-21.8-18.9h.3zm34.9 7.3-18.6-19.8c-5.2 2.6-8.7 7-8.7 12.2 0 7.9 6.7 12.2 14.8 12.2s9.3-2 12.5-4.7z"/><path d="m548.8 212.2h26.2c17.8 0 27.4 10.8 27.4 24.2s-9.6 24.2-27.7 24.2h-18.3v16h-7.9v-64.3h.3zm27 41.4c11.4 0 18.6-7.9 18.6-17.2s-7.3-17.2-18.3-17.2h-19.2v34.4h19.2z"/><path d="m630.9 252.7c0-14.3 9.3-25.3 22.7-25.3s14.6 3.2 18 9.3v-8.4h7.6v48.3h-7.6v-8.4c-3.5 6.4-10.5 9.3-18 9.3-13.4 0-22.7-11.1-22.7-25v.3zm40.7 0c0-10.2-7.3-17.8-16.3-17.8s-16.6 7.6-16.6 17.8 7 17.8 16.6 17.8 16.3-7.6 16.3-17.8z"/><path d="m711.8 228.2h7.6v10.2c2.9-6.4 9-11.4 18.6-11.4v8.2c-11.4 0-18.6 6.4-18.6 18v23h-7.6v-48.3z"/><path d="m770.9 262.3v-27.7h-7.3v-6.1h7.3v-10.5l7.6-1.5v11.9h16.3v6.1h-16.3v27.7c0 6.7 2.9 8.4 6.7 8.4s7.9-2.6 7.9-2.6l2.6 5.8c-1.7 1.2-5.8 3.5-11.1 3.5-8.4 0-13.7-4.1-13.7-15.4v.3z"/><path d="m824.5 228.2h7.6v8.2c3.5-5.8 9.6-9.3 16.6-9.3 11.9 0 17.5 7.3 17.5 20.1v29.4h-7.6v-28.2c0-9-3.2-13.7-11.9-13.7s-14.6 6.7-14.6 14.8v27.1h-7.6v-48.3z"/><path d="m896.1 252.7c0-14 10.5-25.3 24.2-25.3s23 11.1 23 25 0 2.9 0 2.9h-39.3c1.2 9.6 8.7 15.7 17.5 15.7s10.8-1.7 14.8-5.2l3.2 5.5c-5.2 4.1-11.6 6.4-18.3 6.4-13.7 0-25.3-9.9-25.3-25h.3zm39.9-3.2c-.9-9-7.6-15.4-16-15.4s-14.8 6.4-16 15.4z"/><path d="m973.8 228.2h7.6v10.2c2.9-6.4 9-11.4 18.6-11.4v8.2c-11.4 0-18.6 6.4-18.6 18v23h-7.6v-48.3z"/></g></svg>