<svg viewBox="0 0 24 24" xmlns="http://www.w3.org/2000/svg"><path d="m6.93 8.61-.93.39-.39.93s-.07.07-.11.07-.09-.03-.11-.07l-.39-.93-.93-.39s-.07-.07-.07-.11.03-.09.07-.11l.93-.39.39-.93s.07-.07.11-.07.09.03.11.07l.39.93.93.39s.07.07.07.11-.03.09-.07.11zm1.07 5.39c-.35 0-.85-.18-1.12-.4-.35-.29-.63-.89-.63-1.34 0-.35.18-.85.41-1.12l2.13-2.55c.32-.38.98-.8 1.46-.94-.27-.33-.49-.96-.49-1.39 0-1.24 1.01-2.25 2.25-2.25 1.24 0 2.25 1.01 2.25 2.25 0 .43-.22 1.05-.49 1.39.48.14 1.14.56 1.46.94l2.12 2.55c.22.27.41.77.41 1.12 0 .97-.78 1.75-1.75 1.75-.3 0-.75-.14-1-.31v.31h-1v-2-.98l1.42 1.71c.17.2.63.45 1.06.1.15-.12.27-.38.27-.58 0-.15-.08-.37-.17-.48l-2.13-2.55c-.33-.4-1.02-.72-1.54-.72h-1.83c-.52 0-1.21.32-1.54.72l-2.13 2.55c-.1.11-.17.33-.17.48 0 .19.12.45.27.58.42.35.89.1 1.06-.1l1.42-1.71v2.98h-1v-.31c-.25.17-.7.31-1 .31zm9 5v.5c0 .28-.22.5-.5.5h-9c-.28 0-.5-.22-.5-.5v-.5c0-1.1.9-2 2-2h6c1.1 0 2 .9 2 2zm-1 0c0-.55-.45-1-1-1h-6c-.55 0-1 .45-1 1zm-7-4h1v1h-1zm1.75-8.75c0 .69.56 1.25 1.25 1.25.69 0 1.25-.56 1.25-1.25s-.56-1.25-1.25-1.25c-.69 0-1.25.56-1.25 1.25zm.75 9.75v-1h1v1zm2.5-1h1v1h-1zm6 .5s-.03.09-.07.11l-.93.39-.39.93s-.07.07-.11.07-.09-.03-.11-.07l-.39-.93-.93-.39s-.07-.07-.07-.11.03-.09.07-.11l.93-.39.39-.93s.07-.07.11-.07.09.03.11.07l.39.93.93.39s.07.07.07.11z"/></svg>