<svg viewBox="0 0 24 24" xmlns="http://www.w3.org/2000/svg"><path d="m15.91 9.01c.05.15.09.32.09.49 0 .83-.67 1.5-1.5 1.5s-1.5-.67-1.5-1.5c0-.17.04-.33.09-.49l-2.8-2.24c-.23.14-.5.23-.79.23-.23 0-.45-.06-.64-.15l-3.01 3.01c.09.2.15.41.15.64 0 .83-.67 1.5-1.5 1.5s-1.5-.67-1.5-1.5.67-1.5 1.5-1.5c.23 0 .45.06.64.15l3.01-3.01c-.09-.2-.15-.41-.15-.64 0-.83.67-1.5 1.5-1.5s1.5.67 1.5 1.5c0 .17-.04.33-.09.49l2.8 2.24c.23-.14.5-.23.79-.23s.56.09.79.23l2.8-2.24c-.05-.15-.09-.32-.09-.49 0-.83.67-1.5 1.5-1.5s1.5.67 1.5 1.5-.67 1.5-1.5 1.5c-.29 0-.56-.09-.79-.23zm-9.91 6.49v4c0 .28-.22.5-.5.5h-2c-.28 0-.5-.22-.5-.5v-4c0-.28.22-.5.5-.5h2c.28 0 .5.22.5.5zm-1-5c0-.28-.22-.5-.5-.5s-.5.22-.5.5.22.5.5.5.5-.22.5-.5zm0 5.5h-1v3h1zm6-5.5v9c0 .28-.22.5-.5.5h-2c-.28 0-.5-.22-.5-.5v-9c0-.28.22-.5.5-.5h2c.28 0 .5.22.5.5zm-1-5c0-.28-.22-.5-.5-.5s-.5.22-.5.5.22.5.5.5.5-.22.5-.5zm0 5.5h-1v8h1zm6 3.5v5c0 .28-.22.5-.5.5h-2c-.28 0-.5-.22-.5-.5v-5c0-.28.22-.5.5-.5h2c.28 0 .5.22.5.5zm-1-5c0-.28-.22-.5-.5-.5s-.5.22-.5.5.22.5.5.5.5-.22.5-.5zm0 5.5h-1v4h1zm6-4.5v9c0 .28-.22.5-.5.5h-2c-.28 0-.5-.22-.5-.5v-9c0-.28.22-.5.5-.5h2c.28 0 .5.22.5.5zm-2-5c0 .28.22.5.5.5s.5-.22.5-.5-.22-.5-.5-.5-.5.22-.5.5zm1 5.5h-1v8h1z"/></svg>