<svg viewBox="0 0 24 24" xmlns="http://www.w3.org/2000/svg"><path d="m21 9.5v7.82c0 .41-.25.77-.63.93l-4.75 1.65c-.41.13-.84.13-1.25 0l-5.38-1.9-5.31 1.96c-.06.02-.12.04-.19.04-.27 0-.5-.21-.5-.5v-7.82c0-.41.25-.78.63-.93l4.7-1.64c-.2-.46-.33-.9-.33-1.27 0-2.12 1.79-3.84 4-3.84s4 1.72 4 3.84c0 .82-.59 1.95-1.32 3.04l.32.11 5.31-1.96c.06-.03.12-.04.19-.04.27 0 .5.21.5.5zm-12.5.61-4.54 1.58.04 7.09 4.5-1.66zm.5-2.27c0 .84 1.19 2.78 3 4.9 1.81-2.12 3-4.06 3-4.9 0-1.57-1.35-2.84-3-2.84s-3 1.28-3 2.84zm5.5 4.04-.42-.15c-.64.87-1.3 1.64-1.7 2.09-.1.12-.24.17-.38.17s-.28-.06-.38-.17c-.49-.55-1.35-1.58-2.12-2.68v5.96l5 1.77v-7zm-2.5-3.13c-.41 0-.75-.34-.75-.75s.34-.75.75-.75.75.33.75.75-.34.75-.75.75zm8.04 8.56-.04-7.09-4.5 1.66v7.01z"/></svg>