<svg viewBox="0 0 24 24" xmlns="http://www.w3.org/2000/svg"><path d="m15.78 13.58-2.37 2.31.56 3.27s0 .08 0 .12c0 .4-.32.72-.72.72-.1 0-.25-.04-.33-.08l-2.93-1.54-2.93 1.54c-.09.05-.24.08-.33.08-.4 0-.72-.32-.72-.72 0-.03 0-.09.01-.12l.56-3.27-2.37-2.31c-.42-.42-.19-1.14.4-1.23l3.28-.48 1.47-2.98c.1-.22.39-.4.63-.4h.01c.25 0 .53.18.64.4l1.47 2.98 3.28.48c.59.09.82.81.4 1.23zm-1.11-.33-3.23-.47-1.44-2.93-1.45 2.93-3.23.47 2.33 2.29-.55 3.22 2.89-1.52 2.89 1.52-.55-3.22zm2.83-6.26c0 .17-.12.37-.28.45l-1.52.76-.76 1.52c-.08.15-.27.28-.45.28-.17 0-.37-.12-.45-.28l-.76-1.52-1.52-.76c-.15-.08-.27-.28-.28-.45 0-.17.12-.37.28-.45l1.52-.76.76-1.52c.17-.34.73-.34.89 0l.76 1.53 1.52.76c.15.08.28.28.28.45zm-1.62 0-.77-.39c-.08-.04-.18-.14-.22-.23l-.38-.77-.38.77c-.04.08-.14.18-.22.23l-.77.39.77.39c.08.04.18.14.22.23l.38.77.38-.77c.04-.08.14-.18.22-.23zm4.12 4c0 .06-.04.12-.09.15l-1.24.52-.52 1.24c-.03.05-.09.09-.15.09s-.12-.04-.15-.09l-.52-1.24-1.24-.52c-.05-.03-.09-.09-.09-.15s.04-.12.09-.15l1.24-.52.52-1.24c.03-.05.09-.09.15-.09s.12.04.15.09l.52 1.24 1.24.52c.05.03.09.09.09.15z"/></svg>