<svg viewBox="0 0 24 24" xmlns="http://www.w3.org/2000/svg"><path d="m22 10c0 .55-.34 1.02-.87 1.19l-3.59 1.16.46 3.65c0 1.1-2.69 2-6 2s-6-.9-6-2l.46-3.65-1.67-.54c-.09.12-.16.25-.21.4.25.18.42.46.42.79 0 .4-.24.74-.57.9l.56 3.5c.05.31-.12.61-.35.61h-1.27c-.23 0-.4-.3-.35-.61l.56-3.5c-.34-.16-.57-.5-.57-.9s.24-.73.57-.89c.05-.22.13-.43.23-.62l-.93-.3c-.53-.17-.87-.64-.87-1.19s.34-1.02.87-1.19l8.28-2.68c.56-.18 1.14-.18 1.7 0l8.28 2.68c.53.17.87.64.87 1.19zm-1.18-.24-8.28-2.68c-.21-.07-.61-.15-1.08 0l-8.28 2.68c-.23.08-.25.39 0 .47l1.33.43c.3-.22.65-.39 1.03-.46l6.37-1.19c.27-.05.53.13.58.4s-.13.53-.4.58l-6.12 1.15 5.49 1.77c.35.11.73.11 1.08 0l8.28-2.68c.25-.08.23-.4 0-.47zm-4.24 2.9-3.73 1.21c-.89.29-1.62.03-1.7 0l-3.73-1.21-.41 3.27c.34.35 2.04 1.07 4.98 1.07s4.65-.71 4.98-1.07l-.41-3.27z"/></svg>