<svg viewBox="0 0 480 480" xmlns="http://www.w3.org/2000/svg" xmlns:xlink="http://www.w3.org/1999/xlink"><linearGradient id="a" gradientUnits="userSpaceOnUse" x1="80" x2="400" y1="240" y2="240"><stop offset="0" stop-color="#124561"/><stop offset="1" stop-color="#0096d1"/></linearGradient><path d="m400 150v120c0 26.05-43.94 47.44-100 49.75v10.25c0 27.62-49.25 50-110 50s-110-22.38-110-50v-120c0-27.87 47.56-47.38 100-49.57v-10.43c0-22.25 31.62-35.12 32.19-35.37 19.94-9 47.44-14.63 77.81-14.63 71.19 0 110 26.88 110 50zm-118.31 60c0-16.56-41.06-30-91.69-30s-91.69 13.44-91.69 30 41.06 30 91.69 30 91.69-13.44 91.69-30zm-1.69 28.69c-19.87 12.87-52.75 21.31-90 21.31s-70.13-8.44-90-21.31v31.31c0 8.69 31.56 30 90 30s90-21.31 90-30zm0 60c-19.87 12.87-52.75 21.31-90 21.31s-70.13-8.44-90-21.31v31.31c0 8.69 31.56 30 90 30s90-21.31 90-30zm101.75-148.69c0-16.56-41.06-30-91.69-30s-91.68 13.44-91.68 30c0 3.81 2.37 7.38 6.31 10.68 19.12 1.13 49.19 5.2 72.25 18.75 4.32.25 8.51.57 13.07.57 50.62 0 91.75-13.44 91.75-30zm-1.75 28.69c-18.56 12.05-48.44 20.06-82.56 21.11 1.49 3.32 2.56 6.7 2.56 10.2v29.49c51.82-2.36 80-21.31 80-29.49zm0 60c-18.07 11.68-47 19.43-80 20.8v40.08c51.88-2.32 80-21.39 80-29.57z" fill="url(#a)"/></svg>