<svg viewBox="0 0 480 480" xmlns="http://www.w3.org/2000/svg" xmlns:xlink="http://www.w3.org/1999/xlink"><linearGradient id="a" gradientUnits="userSpaceOnUse" x1="80" x2="400" y1="240" y2="240"><stop offset="0" stop-color="#124561"/><stop offset="1" stop-color="#0096d1"/></linearGradient><path d="m400 228.28v131.72c0 11.04-8.96 20-20 20h-280c-11.04 0-20-8.96-20-20v-131.71c0-5.31 2.11-10.39 5.86-14.14l28.28-28.29c3.76-3.75 8.84-5.86 14.14-5.86h31.72v-50c0-16.54 13.46-30 30-30h100c16.54 0 30 13.46 30 30v50h31.72c5.31 0 10.39 2.11 14.14 5.86l28.28 28.29c3.75 3.75 5.86 8.84 5.86 14.14zm-20 51.72v-51.72l-28.29-28.28h-223.43l-28.28 28.28v51.72h60v-15c0-2.76 2.24-5 5-5h10c2.76 0 5 2.24 5 5v15h120v-15c0-2.76 2.24-5 5-5h10c2.76 0 5 2.24 5 5v15zm0 20h-60v15c0 2.76-2.24 5-5 5h-10c-2.76 0-5-2.24-5-5v-15h-120v15c0 2.76-2.24 5-5 5h-10c-2.76 0-5-2.24-5-5v-15h-60v60h280zm-200-120h120v-50c0-5.52-4.49-10-10-10h-100c-5.51 0-10 4.48-10 10z" fill="url(#a)"/></svg>