<svg viewBox="0 0 480 480" xmlns="http://www.w3.org/2000/svg" xmlns:xlink="http://www.w3.org/1999/xlink"><linearGradient id="a" gradientUnits="userSpaceOnUse" x1="40" x2="440" y1="240" y2="240"><stop offset="0" stop-color="#124561"/><stop offset="1" stop-color="#0096d1"/></linearGradient><path d="m440 380c0 2.82-1.1 7.11-2.45 9.58-3.51 6.43-10.24 10.42-17.56 10.42h-359.99c-6.55 0-14.41-4.67-17.55-10.41-1.35-2.47-2.45-6.77-2.45-9.58 0-3.24 1.42-8.09 3.18-10.82l179.99-280c3.68-5.73 10.02-9.19 16.83-9.19s13.14 3.46 16.83 9.19l180 280c1.75 2.73 3.18 7.57 3.18 10.81zm-20 0-102.86-160h-73l-44.14 44.14-39.88-39.88-100.12 155.74zm-248.84-172.92 28.84 28.78 35.86-35.86h68.43l-64.29-100z" fill="url(#a)"/></svg>