<svg viewBox="0 0 480 480" xmlns="http://www.w3.org/2000/svg" xmlns:xlink="http://www.w3.org/1999/xlink"><linearGradient id="a" gradientUnits="userSpaceOnUse" x1="40" x2="440" y1="240" y2="240"><stop offset="0" stop-color="#124561"/><stop offset="1" stop-color="#0096d1"/></linearGradient><path d="m440 220v175c0 2.76-2.24 5-5 5h-10c-2.76 0-5-2.24-5-5v-175h-60v175c0 2.76-2.24 5-5 5h-10c-2.76 0-5-2.24-5-5v-228.33l-100-66.67-100 66.67v228.33c0 2.76-2.24 5-5 5h-10c-2.76 0-5-2.24-5-5v-175h-60v175c0 2.76-2.24 5-5 5h-10c-2.76 0-5-2.24-5-5v-175c0-11.04 8.96-20 20-20h60v-33.33c0-5.91 3.99-13.37 8.91-16.64l100-66.67c3.36-2.24 7.22-3.36 11.09-3.36s7.74 1.12 11.09 3.36l100 66.67c5.56 3.71 8.91 9.95 8.91 16.64v33.34h60c11.04 0 20 8.96 20 20zm-140-20c0 33.09-26.91 60-60 60s-60-26.91-60-60 26.91-60 60-60 60 26.91 60 60zm0 110v85c0 2.76-2.24 5-5 5h-10c-2.76 0-5-2.24-5-5v-85c0-5.52-4.48-10-10-10h-60c-5.52 0-10 4.48-10 10v85c0 2.76-2.24 5-5 5h-10c-2.76 0-5-2.24-5-5v-85c0-16.57 13.43-30 30-30h60c16.57 0 30 13.43 30 30zm-20-110c0-22.06-17.95-40-40-40s-40 17.94-40 40 17.95 40 40 40 40-17.94 40-40zm-15 5v10c0 2.76-2.24 5-5 5h-25c-2.76 0-5-2.24-5-5v-35c0-2.76 2.24-5 5-5h10c2.76 0 5 2.24 5 5v20h10c2.76 0 5 2.24 5 5z" fill="url(#a)"/></svg>