<svg viewBox="0 0 480 480" xmlns="http://www.w3.org/2000/svg" xmlns:xlink="http://www.w3.org/1999/xlink"><linearGradient id="a" gradientUnits="userSpaceOnUse" x1="110" x2="370" y1="240" y2="240"><stop offset="0" stop-color="#124561"/><stop offset="1" stop-color="#0096d1"/></linearGradient><path d="m369.81 300c.06 48.26-25.14 78.01-33.21 86.97-7.56 8.38-18.45 13.03-29.74 13.03h-133.78c-11.11 0-21.9-4.45-29.38-12.7-20.94-23.07-33.71-53.69-33.71-87.3 0-54.08 33.03-100.41 80-120v-80h-15c-2.76 0-5-2.25-5-5v-10c0-2.75 2.24-5 5-5h130c2.76 0 5 2.25 5 5v10c0 2.75-2.24 5-5 5h-15v80c46.97 19.59 80 65.92 80 120h-.19zm-20.68 10h-31.87c-21.33 0-42.66-5.62-61.7-16.27-32.48-18.18-71.31-18.18-103.87 0l-21.18 11.86c1.3 25.31 10.88 49.41 28.01 68.28 3.54 3.91 8.85 6.13 14.56 6.13h133.78c5.78 0 11.2-2.34 14.88-6.43 15.92-17.66 25.22-40.04 27.38-63.57zm-217.58-27.93 10.38-5.8c38.63-21.6 84.77-21.6 123.4 0 16.04 8.98 34.01 13.73 51.93 13.73h32.09c-3.66-40.39-29.05-75.68-67.05-91.54l-12.3-5.14v-93.32h-60v93.32l-12.3 5.14c-35.5 14.8-60.06 46.56-66.14 83.61z" fill="url(#a)"/></svg>