<svg viewBox="0 0 480 480" xmlns="http://www.w3.org/2000/svg" xmlns:xlink="http://www.w3.org/1999/xlink"><linearGradient id="a" gradientUnits="userSpaceOnUse" x1="120" x2="360" y1="240" y2="240"><stop offset="0" stop-color="#124561"/><stop offset="1" stop-color="#0096d1"/></linearGradient><path d="m360 180v20c0 11.04-8.96 20-20 20v20c0 51.72-39.61 93.89-90 98.99v61.01h-20v-61.01c-50.39-5.1-90-47.27-90-98.99v-20c-11.04 0-20-8.96-20-20v-20c0-11.04 8.96-20 20-20h30v-70c0-5.52 4.48-10 10-10s10 4.48 10 10v70h100v-70c0-5.52 4.48-10 10-10s10 4.48 10 10v70h30c11.04 0 20 8.96 20 20zm-20 0h-200v20h200zm-20 40h-160v20c0 44.16 35.84 80 80 80s80-35.84 80-80z" fill="url(#a)"/></svg>