<svg viewBox="0 0 480 480" xmlns="http://www.w3.org/2000/svg" xmlns:xlink="http://www.w3.org/1999/xlink"><linearGradient id="a" gradientUnits="userSpaceOnUse" x1="140" x2="340" y1="240" y2="240"><stop offset="0" stop-color="#124561"/><stop offset="1" stop-color="#0096d1"/></linearGradient><path d="m337.94 202.5-110 190c-2.75 4.75-7.81 7.5-13 7.5-9.56 0-16.81-8.94-14.56-18.44l28.81-121.56h-74.19c-9.06 0-16.06-8-14.88-17l20-150c1-7.44 7.38-13 14.88-13h90c9.81 0 17 9.38 14.5 18.88l-26.62 81.12h72.12c11.56 0 18.75 12.56 12.94 22.5zm-21.62-2.5h-91.06l8.62-26.25 24.19-73.75h-78.69l-18.69 139.94h93.75l-5.81 24.62-20.94 88.5 88.62-153.06z" fill="url(#a)"/></svg>