<svg viewBox="0 0 480 480" xmlns="http://www.w3.org/2000/svg" xmlns:xlink="http://www.w3.org/1999/xlink"><linearGradient id="a" gradientUnits="userSpaceOnUse" x1="40" x2="440" y1="240" y2="240"><stop offset="0" stop-color="#124561"/><stop offset="1" stop-color="#0096d1"/></linearGradient><path d="m61.82 300h98.99c-.22 2.25-.81 4.38-.81 6.66v13.34h-70v30c0 5.53-4.48 10-10 10h-10c-5.52 0-10-4.47-10-10v-30h1.82c-12.04 0-21.82-9.77-21.82-21.82v-174.29c0-24.57 53.12-43.89 120-43.89s120 19.32 120 43.89v46.11h-20v-10h-90v60h25.77l-4.62 20h-131.19l.04 58.18c0 1 .81 1.82 1.82 1.82zm-1.94-160h200.12v-16.11c-2.75-6.21-36.78-23.89-100-23.89s-97.25 17.68-100.13 24.73v15.27zm90.12 20h-90v60h90zm-57.5 95c6.9 0 12.5 5.61 12.5 12.5s-5.6 12.5-12.5 12.5-12.5-5.61-12.5-12.5 5.6-12.5 12.5-12.5zm347.5 51.66v34.45c-.04 11.54-9 23.81-20 27.34v21.54c0 5.53-4.48 10-10 10h-10c-5.52 0-10-4.47-10-10v-20h-160v20c0 5.53-4.48 10-10 10h-10c-5.52 0-10-4.47-10-10v-21.54c-11-3.54-19.96-15.8-20-27.34v-34.45c0-18.22 10.62-33.89 25.9-41.56l10.17-44.08c3.89-17.13 21.28-31.02 38.83-31.02h108.48c17.55 0 34.95 13.89 38.83 31.02l9.93 43.01c15.35 6.76 27.84 25.86 27.87 42.64zm-20 0c-.02-14.69-11.96-26.64-26.67-26.66h-166.66c-14.71.02-26.65 11.97-26.67 26.66v34.45c0 4.9 3.98 8.89 8.89 8.89h202.23c4.9 0 8.88-3.98 8.89-8.89v-34.45zm-175 5.84c0 6.89-5.6 12.5-12.5 12.5s-12.5-5.61-12.5-12.5 5.6-12.5 12.5-12.5 12.5 5.61 12.5 12.5zm-17.4-52.5h163.07l-7.95-34.49c-1.97-8.55-10.7-15.51-19.49-15.51h-108.18c-8.78 0-17.51 6.95-19.48 15.51l-7.96 34.49zm172.4 52.5c0 6.89-5.6 12.5-12.5 12.5s-12.5-5.61-12.5-12.5 5.6-12.5 12.5-12.5 12.5 5.61 12.5 12.5z" fill="url(#a)"/></svg>