<svg viewBox="0 0 480 480" xmlns="http://www.w3.org/2000/svg" xmlns:xlink="http://www.w3.org/1999/xlink"><linearGradient id="a" gradientUnits="userSpaceOnUse" x1="40" x2="440" y1="240" y2="240"><stop offset="0" stop-color="#124561"/><stop offset="1" stop-color="#0096d1"/></linearGradient><path d="m440 240c0 22-77.39 110-172.85 110-62.48 0-117.04-37.66-147.41-69.88l-60.65 45.41c-2.28 1.71-4.86 2.46-7.38 2.46-6.77 0-13.04-5.49-11.48-12.54l16.8-75.46-16.81-75.47c-1.57-7.05 4.69-12.54 11.48-12.54 2.51 0 5.09.76 7.37 2.46l60.65 45.41c30.37-32.21 84.94-69.87 147.41-69.87 95.46 0 172.85 88 172.85 110zm-20.31 0c-7.27-20.42-74.06-90-152.54-90-53.76 0-103.88 32.85-132.86 63.6l-12.25 12.99-14.29-10.7-42.71-31.98 11.52 51.75.97 4.34-.97 4.34-11.52 51.75 42.71-31.98 14.29-10.7 12.25 12.99c28.98 30.74 79.09 63.59 132.86 63.59 78.47 0 145.26-69.58 152.54-90zm-84.69 0c0 8.28-6.72 15-15 15s-15-6.72-15-15 6.72-15 15-15 15 6.71 15 15z" fill="url(#a)"/></svg>