<svg viewBox="0 0 480 480" xmlns="http://www.w3.org/2000/svg" xmlns:xlink="http://www.w3.org/1999/xlink"><linearGradient id="a" gradientUnits="userSpaceOnUse" x1="40" x2="440" y1="240" y2="240"><stop offset="0" stop-color="#124561"/><stop offset="1" stop-color="#0096d1"/></linearGradient><path d="m439.1 334.12c-1.64 3.56-5.19 5.85-9.1 5.85h-100v15.29l15.12 30.26c3.33 6.66-1.51 14.48-8.94 14.48h-72.36c-7.43 0-12.27-7.83-8.94-14.48l15.12-30.26v-15.29h-60v15.29l15.12 30.26c3.32 6.66-1.51 14.48-8.94 14.48h-72.36c-7.43 0-12.27-7.83-8.94-14.48l15.12-30.26v-15.29h-100c-3.91 0-7.46-2.28-9.1-5.85-1.62-3.56-1.01-7.74 1.54-10.71l46.33-53.47h-18.77c-3.89 0-7.44-2.26-9.06-5.79-1.64-3.54-1.09-7.7 1.43-10.67l45.31-53.57h-17.68c-3.94 0-7.52-2.33-9.14-5.93-.48-1.07-.86-2.9-.86-4.07 0-2.12 1.15-5.12 2.56-6.7l90-100.04c3.82-4.22 11.06-4.22 14.88 0l52.56 58.42 52.56-58.42c3.83-4.22 11.06-4.22 14.88 0l90 100.04c2.64 2.94 3.3 7.16 1.7 10.77-1.62 3.61-5.19 5.93-9.14 5.93h-17.67l45.31 53.57c2.52 2.97 3.06 7.13 1.42 10.67-1.62 3.54-5.17 5.79-9.06 5.79h-18.77l46.32 53.47c2.56 2.96 3.17 7.15 1.54 10.71zm-150.84-14.12-60-70h40.18l-59.24-70h38.34l-67.54-75.05-67.54 75.05h38.34l-59.24 70h40.18l-60 70zm-88.26 59.99-10-20.01v-20.01h-20v20.01l-10 20.01zm208.26-59.99-60-70h40.17l-59.24-70h38.34l-67.54-75.05-46.49 51.66 23.93 26.6c2.64 2.94 3.3 7.16 1.7 10.77-1.62 3.61-5.19 5.93-9.14 5.93h-17.68l45.31 53.57c2.52 2.97 3.06 7.13 1.42 10.67-1.62 3.54-5.17 5.79-9.06 5.79h-18.77l43.37 50.06h93.66zm-88.26 59.99-10-20.01v-20.01h-20v20.01l-10 20.01z" fill="url(#a)"/></svg>