<svg viewBox="0 0 480 480" xmlns="http://www.w3.org/2000/svg" xmlns:xlink="http://www.w3.org/1999/xlink"><linearGradient id="a" gradientUnits="userSpaceOnUse" x1="80" x2="400" y1="240" y2="240"><stop offset="0" stop-color="#124561"/><stop offset="1" stop-color="#0096d1"/></linearGradient><path d="m400 375c0 13.79-11.21 25-25 25h-270c-13.79 0-25-11.21-25-25 0-19.3 15.7-35 35-35h165c44.12 0 80-35.89 80-80s-35.88-80-80-80v80c0 11.04-8.96 20-20 20v30c0 5.52-4.48 10-10 10h-60c-5.53 0-10-4.48-10-10v-30c-11.04 0-20-8.96-20-20v-140c0-11.04 8.96-20 20-20v-10c0-5.52 4.47-10 10-10h60c5.52 0 10 4.48 10 10v10c11.04 0 20 8.96 20 20v40c55.14 0 100 44.86 100 100 0 32.82-16.11 61.76-40.62 80h25.62c19.3 0 35 15.7 35 35zm-20 0c0-8.29-6.72-15-15-15h-250c-8.28 0-15 6.71-15 15 0 2.76 2.24 5 5 5h270c2.76 0 5-2.24 5-5zm-120-255h-20v-20h-40v20h-20v140h80zm-20 160h-40v20h40z" fill="url(#a)"/></svg>