<svg viewBox="0 0 480 480" xmlns="http://www.w3.org/2000/svg" xmlns:xlink="http://www.w3.org/1999/xlink"><linearGradient id="a" gradientUnits="userSpaceOnUse" x1="80.03" x2="399.97" y1="240" y2="240"><stop offset="0" stop-color="#124561"/><stop offset="1" stop-color="#0096d1"/></linearGradient><path d="m399.97 192.43c0 21.38-7.69 41.31-21.12 57.56h-85l-13.81-27.62-31.06 62.12c-3.75 7.56-14.62 7.31-18.06-.38l-35.56-79-18.69 44.88h-75.5c-13.44-16.25-21.12-36.19-21.12-57.56 0-24.5 9.62-47.44 27.06-64.62 28.12-27.69 58.56-27.81 66.5-27.81s38.5.19 66.44 27.75c28-27.62 58.5-27.75 66.44-27.75s38.31.12 66.5 27.81c17.44 17.19 27.06 40.12 27 64.62zm-42.38-51.63c-14.06-13.88-32.56-20.81-51.12-20.81-19.88 0-32.06 1.94-66.44 35.81-32.38-31.88-45.25-35.81-66.44-35.81-18.56 0-37.06 6.94-51.19 20.81-38.06 37.5-17.19 80.06-11.44 89.19h52.38l22.44-53.88c3.38-8.06 14.75-8.25 18.38-.25l36.38 80.81 30.56-61.19c3.69-7.38 14.19-7.38 17.88 0l17.25 34.5h62.88c5.69-9.06 26.62-51.62-11.5-89.19zm-25.37 129.19h27.81l-98 101.38c-11.69 11.5-30.38 11.56-42.06 0l-99.94-101.38h28.06l85.88 87.12c3.88 3.81 10.12 3.81 14 0z" fill="url(#a)"/></svg>