<svg viewBox="0 0 480 480" xmlns="http://www.w3.org/2000/svg" xmlns:xlink="http://www.w3.org/1999/xlink"><linearGradient id="a" gradientUnits="userSpaceOnUse" x1="120" x2="360" y1="240" y2="240"><stop offset="0" stop-color="#124561"/><stop offset="1" stop-color="#0096d1"/></linearGradient><path d="m340 80c11.04 0 20 8.96 20 20 0 .35-.02.91-.04 1.25l-20 280c-.65 10.35-9.59 18.75-19.96 18.75h-160c-10.37 0-19.31-8.4-19.96-18.75l-20-280c-.02-.34-.04-.9-.04-1.25 0-11.04 8.96-20 20-20zm-200 20 5.71 80h188.57l5.72-80zm180 280 12.86-180h-185.71l12.86 179.83 160 .17z" fill="url(#a)"/></svg>