<svg viewBox="0 0 480 480" xmlns="http://www.w3.org/2000/svg" xmlns:xlink="http://www.w3.org/1999/xlink"><linearGradient id="a" gradientUnits="userSpaceOnUse" x1="60" x2="420" y1="240" y2="240"><stop offset="0" stop-color="#124561"/><stop offset="1" stop-color="#0096d1"/></linearGradient><path d="m419.68 138.06-27.08 130c-1.45 6.96-7.58 11.94-14.69 11.94h-207.11l7.5 40h185.03c7.14 0 12.93 4.93 14.55 11.33 7.47 7.27 12.12 17.42 12.12 28.67 0 22.09-17.91 40-40 40s-40-17.91-40-40v-.04c0-5.91 2.4-14.85 5.36-19.96h-90.73c2.96 5.11 5.36 14.05 5.36 19.96v.04c0 22.09-17.91 40-40 40s-40-17.91-40-40c0-10.36 3.94-19.8 10.41-26.91l-43.71-233.09h-49.2c-4.14 0-7.5-3.36-7.5-7.5v-5c0-4.14 3.36-7.5 7.5-7.5h53.35c7.22 0 13.41 5.14 14.74 12.24l5.21 27.76h264.19c9.51 0 16.63 8.74 14.69 18.06zm-20.83 1.94h-254.3l22.5 120h206.8zm-208.85 200c-11.03 0-20 8.97-20 20s8.97 20 20 20 20-8.97 20-20-8.97-20-20-20zm180 20c0-11.03-8.97-20-20-20s-20 8.97-20 20 8.97 20 20 20 20-8.97 20-20z" fill="url(#a)"/></svg>