<svg viewBox="0 0 480 480" xmlns="http://www.w3.org/2000/svg" xmlns:xlink="http://www.w3.org/1999/xlink"><linearGradient id="a" gradientUnits="userSpaceOnUse" x1="100" x2="380" y1="240" y2="240"><stop offset="0" stop-color="#124561"/><stop offset="1" stop-color="#0096d1"/></linearGradient><path d="m380 400h-280v-12.5c0-4.14 3.36-7.5 7.5-7.5h12.5v-285c0-8.28 6.72-15 15-15h210c8.28 0 15 6.72 15 15v285h12.5c4.14 0 7.5 3.36 7.5 7.5zm-40-300h-200v280h80v-53.12c0-4.14 3.36-7.5 7.5-7.5h25c4.14 0 7.5 3.36 7.5 7.5v53.12h80zm-120 71.88c0 4.14-3.36 7.5-7.5 7.5h-25c-4.14 0-7.5-3.36-7.5-7.5v-25c0-4.14 3.36-7.5 7.5-7.5h25c4.14 0 7.5 3.36 7.5 7.5zm0 35v25c0 4.14-3.36 7.5-7.5 7.5h-25c-4.14 0-7.5-3.36-7.5-7.5v-25c0-4.14 3.36-7.5 7.5-7.5h25c4.14 0 7.5 3.36 7.5 7.5zm0 60v25c0 4.14-3.36 7.5-7.5 7.5h-25c-4.14 0-7.5-3.36-7.5-7.5v-25c0-4.14 3.36-7.5 7.5-7.5h25c4.14 0 7.5 3.36 7.5 7.5zm80-120v25c0 4.14-3.36 7.5-7.5 7.5h-25c-4.14 0-7.5-3.36-7.5-7.5v-25c0-4.14 3.36-7.5 7.5-7.5h25c4.14 0 7.5 3.36 7.5 7.5zm0 60v25c0 4.14-3.36 7.5-7.5 7.5h-25c-4.14 0-7.5-3.36-7.5-7.5v-25c0-4.14 3.36-7.5 7.5-7.5h25c4.14 0 7.5 3.36 7.5 7.5zm0 60v25c0 4.14-3.36 7.5-7.5 7.5h-25c-4.14 0-7.5-3.36-7.5-7.5v-25c0-4.14 3.36-7.5 7.5-7.5h25c4.14 0 7.5 3.36 7.5 7.5z" fill="url(#a)"/></svg>