<svg viewBox="0 0 480 480" xmlns="http://www.w3.org/2000/svg" xmlns:xlink="http://www.w3.org/1999/xlink"><linearGradient id="a" gradientUnits="userSpaceOnUse" x1="120" x2="360" y1="240" y2="240"><stop offset="0" stop-color="#124561"/><stop offset="1" stop-color="#0096d1"/></linearGradient><path d="m160 80h120l80 80v200c0 22.06-17.94 40-40 40h-160c-22.06 0-40-17.94-40-40v-240c0-22.06 17.94-40 40-40zm-20 280c0 11 9 20 20 20h160c11 0 20-9 20-20v-191.69l-68.31-68.31h-111.69c-11 0-20 9-20 20zm50-160h100c16.56 0 30 13.44 30 30v100c0 16.56-13.44 30-30 30h-100c-16.56 0-30-13.44-30-30v-100c0-16.56 13.44-30 30-30zm-10 45h25v-25h-15c-5.5 0-10 4.5-10 10zm0 50h120v-30h-120zm0 35c0 5.5 4.5 10 10 10h15v-25h-25zm75-110h-30v25h30zm-30 120h30v-25h-30zm75-110c0-5.5-4.5-10-10-10h-15v25h25zm-25 110h15c5.5 0 10-4.5 10-10v-15h-25z" fill="url(#a)"/></svg>