<svg viewBox="0 0 480 480" xmlns="http://www.w3.org/2000/svg" xmlns:xlink="http://www.w3.org/1999/xlink"><linearGradient id="a" gradientUnits="userSpaceOnUse" x1="80" x2="400" y1="240" y2="240"><stop offset="0" stop-color="#124561"/><stop offset="1" stop-color="#0096d1"/></linearGradient><path d="m400 365c0 8.28-6.72 15-15 15h-290c-8.28 0-15-6.72-15-15v-250c0-8.28 6.72-15 15-15h50c8.28 0 15 6.72 15 15v115.73l98.29-49.15c9.87-4.93 21.71 2.16 21.71 13.42v35.73l98.29-49.15c9.87-4.93 21.71 2.16 21.71 13.42zm-260-245h-40v240h280v-156.91l-112.76 56.38c-3.32 1.66-7.24-.75-7.24-4.47v-51.91l-112.76 56.38c-3.32 1.66-7.24-.76-7.24-4.47zm32.5 200h-25c-4.14 0-7.5-3.36-7.5-7.5v-25c0-4.14 3.36-7.5 7.5-7.5h25c4.14 0 7.5 3.36 7.5 7.5v25c0 4.14-3.36 7.5-7.5 7.5zm80 0h-25c-4.14 0-7.5-3.36-7.5-7.5v-25c0-4.14 3.36-7.5 7.5-7.5h25c4.14 0 7.5 3.36 7.5 7.5v25c0 4.14-3.36 7.5-7.5 7.5zm55 0c-4.14 0-7.5-3.36-7.5-7.5v-25c0-4.14 3.36-7.5 7.5-7.5h25c4.14 0 7.5 3.36 7.5 7.5v25c0 4.14-3.36 7.5-7.5 7.5z" fill="url(#a)"/></svg>