<svg viewBox="0 0 480 480" xmlns="http://www.w3.org/2000/svg" xmlns:xlink="http://www.w3.org/1999/xlink"><linearGradient id="a" gradientUnits="userSpaceOnUse" x1="80" x2="400" y1="240" y2="240"><stop offset="0" stop-color="#124561"/><stop offset="1" stop-color="#0096d1"/></linearGradient><path d="m259.33 309.06h-.01c1.86 17.79-1.06 90.94-89.32 90.94-63.33 0-90-50.89-90-108.8 6.88 4.7 31.04 24.16 38.84 24.16 4.63 0 8.6-2.64 10.26-7.01 14.53-38.28 40.13-49.03 68.34-50.84l103.71-155.1c11.13-15.88 25.81-22.41 40.43-22.41 40.47 0 80.58 50.01 44.16 90.03l-126.4 139.03zm-20.16-.31-35.56-31.6c-44.8 2.87-51.53 26.98-55.82 38.29-4.58 12.09-15.95 19.92-28.96 19.92-4.11 0-8.23-.96-12.95-3.04 7.76 24.26 25.31 47.68 64.11 47.68 24.55 0 42.84-6.48 54.35-19.26 12.27-13.63 16.67-34.36 14.82-51.99zm131.76-152.18c9.27-10.19 11.46-21.05 6.49-32.27-6.12-13.86-21.54-24.3-35.85-24.3-9.49 0-17.59 4.67-24.04 13.89l-99.72 149.13 31.16 27.7 121.96-134.14z" fill="url(#a)"/></svg>