<svg viewBox="0 0 480 480" xmlns="http://www.w3.org/2000/svg" xmlns:xlink="http://www.w3.org/1999/xlink"><linearGradient id="a" gradientUnits="userSpaceOnUse" x1="80" x2="400" y1="240" y2="240"><stop offset="0" stop-color="#124561"/><stop offset="1" stop-color="#0096d1"/></linearGradient><path d="m385.02 208.34c3.91 3.91 3.91 10.23 0 14.14l-21.1 21.09c-10.92 10.92-25.01 16.52-39.31 17.27l3.96 3.95c3.91 3.91 3.91 10.23 0 14.14l-21.1 21.09c-10.97 10.98-25.15 16.6-39.51 17.29l4.04 4.04c3.91 3.91 3.91 10.25 0 14.16l-21.1 21.09c-11.72 11.7-27.06 17.56-42.42 17.56s-30.7-5.86-42.41-17.56l-14.28-14.28-54.72 54.75c-1.95 1.95-4.51 2.93-7.07 2.93s-5.12-.98-7.06-2.93c-3.91-3.91-3.91-10.23 0-14.14l54.84-54.88-14.35-14.34c-23.45-23.44-23.45-61.45 0-84.88l21.06-21.05c3.91-3.91 10.24-3.89 14.14 0l4.05 4.06c.68-14.39 6.32-28.59 17.3-39.57l21.06-21.05c3.91-3.91 10.24-3.91 14.14 0l3.96 3.96c.73-14.32 6.35-28.44 17.29-39.36l21.07-21.05c3.91-3.91 10.23-3.91 14.13 0l21.53 21.52c2.55 2.54 4.68 5.31 6.68 8.16 3.21-8.67 7.88-16.93 14.66-23.73 17.99-16.72 44.66-20.72 66.1-20.72 2.9 0 5.7.08 8.38.2 5.77.27 10.51 4.8 10.79 10.57 1.33 28.16-3.79 57.01-20.4 75.06-6.85 6.37-15.34 10.72-24.52 14 3.12 2.13 6.13 4.51 8.91 7.29l21.24 21.23zm-233.11 105.57 15.21-15.21c14.92-16.23 13.77-40.39-1.09-55.23l-14.46-14.47-14 14c-15.65 15.64-15.63 40.96 0 56.58l14.35 14.34zm98.87 14.53-14.17-14.16c-15.64-15.64-40.94-15.61-56.55 0l-14.03 14.02 14.16 14.14c15.64 15.64 40.94 15.62 56.56 0zm-56.65-85.43 14.34 14.32 15.34-15.35c19.87-21.84 7.29-46.58-1.22-55.1l-14.46-14.45-13.99 14c-15.65 15.64-15.64 40.96 0 56.58zm113.22 28.85-14.16-14.14c-15.64-15.64-40.94-15.62-56.55 0l-14.03 14 14.16 14.16c15.64 15.62 40.93 15.61 56.55 0zm-56.76-85.32 14.33 14.32 13.98-14c.17-.18.4-.21.59-.37 15.45-15.98 14.8-40.84-.44-56.07l-14.46-14.43-13.99 13.98c-15.65 15.64-15.63 40.96 0 56.58zm113.21 28.87-14.16-14.16c-15.64-15.64-40.94-15.61-56.55 0l-14.03 14.02 14.16 14.16c15.64 15.62 40.94 15.61 56.56 0zm-50.51-48.85h.23c16.04 0 37.92-2.6 51.66-14.86 9.41-10.66 14.67-29.18 14.79-51.7-16.34.08-38.35 2.83-51.85 15.37-12.37 12.44-15.06 34.98-14.84 51.19z" fill="url(#a)"/></svg>