<svg viewBox="0 0 480 480" xmlns="http://www.w3.org/2000/svg" xmlns:xlink="http://www.w3.org/1999/xlink"><linearGradient id="a" gradientUnits="userSpaceOnUse" x1="39.97" x2="440.03" y1="240" y2="240"><stop offset="0" stop-color="#124561"/><stop offset="1" stop-color="#0096d1"/></linearGradient><path d="m130.8 344.24c-8.06-3.44-15.69-7.88-22.75-13.19l-17.19 9.94c-6.12 3.5-13.81 2.31-18.56-2.88-15.12-16.44-24.06-30.94-31.62-55.06-2.12-6.69.69-13.94 6.75-17.5l17.06-9.94c-1.06-8.75-1.06-17.56 0-26.31l-17.06-9.88c-6.06-3.5-8.88-10.81-6.75-17.5 7.56-24 16.38-38.5 31.62-55.06 4.75-5.19 12.5-6.38 18.56-2.88l17.12 9.94c7.06-5.31 14.69-9.69 22.75-13.19v-19.75c0-7.06 4.88-13.12 11.75-14.62 21.69-4.88 38.75-5.44 63.56 0 6.88 1.5 11.81 7.62 11.81 14.62v19.75c8.06 3.44 15.69 7.88 22.75 13.12l17.12-9.88c6.12-3.5 13.88-2.31 18.62 2.88 16.81 18.5 25.94 34.94 32.56 55.31 2.12 6.56-.5 13.69-6.38 17.31l-15.62 9.88c1.06 8.75 1.06 17.56 0 26.31l17.56 10.94c5.38 3.38 8.12 9.75 6.75 15.94-4.31 19.56-20.62 40.38-34.94 55.75-4.75 5.12-12.44 6.25-18.5 2.75l-17.19-9.94c-7.06 5.31-14.69 9.69-22.75 13.19v19.75c0 7-4.88 13.12-11.75 14.62-23.44 5.19-40.56 5.12-63.69 0-6.75-1.56-11.62-7.69-11.62-14.69v-19.75zm67.06 15.88v-29.81l6.69-2.38c10.5-3.69 20.19-9.31 28.69-16.56l5.38-4.62 25.88 14.94c10.5-11.94 21.25-25.81 26.31-40.75l-25.88-14.94 1.31-6.94c2-11 2-22.19 0-33.19l-1.31-6.94 25.88-14.94c-5.06-14.94-15.81-28.88-26.31-40.75l-25.88 14.94-5.38-4.62c-8.5-7.31-18.12-12.88-28.69-16.56l-6.69-2.38v-29.75c-15.5-3.12-31.56-3.12-47.06 0v29.81l-6.69 2.38c-10.5 3.69-20.19 9.31-28.69 16.56l-5.38 4.62-25.88-14.94c-8.75 9.95-19.31 28.2-23.56 40.75l25.88 14.94-1.31 6.94c-2 11-2 22.19 0 33.19l1.31 6.94-25.88 14.94c5.06 14.94 13.06 28.88 23.56 40.75l25.88-14.94 5.38 4.62c8.5 7.31 18.12 12.88 28.69 16.56l6.69 2.38v29.75c15.5 3.12 31.56 3.12 47.06 0zm-74.88-117.63c0-28.56 23.25-51.81 51.81-51.81s51.81 23.25 51.81 51.81-23.25 51.81-51.81 51.81-51.81-23.25-51.81-51.81zm20 0c0 17.56 14.25 31.81 31.81 31.81s31.81-14.25 31.81-31.81-14.25-31.81-31.81-31.81-31.81 14.25-31.81 31.81zm232.07-42.18c-2.56.19-5.06.19-7.62 0l-1.56 2.5c-3.62 5.75-10.69 8.38-17.19 6.31-8.62-2.69-14.38-5.5-21.44-11.31-5.62-4.62-7-12.69-3.38-19l1.56-2.69c-1.44-2.12-2.69-4.31-3.81-6.62h-5.69c-7.25 0-13.38-5.12-14.75-12.25-1.62-8.56-1.69-15.12.06-24.06 1.31-7.06 7.56-12.19 14.75-12.19h5.62c1.12-2.31 2.38-4.5 3.81-6.62l-1.62-2.81c-3.62-6.25-2.25-14.19 3.25-18.94 6.62-5.69 12.31-8.94 20.94-11.88 6.75-2.31 14.19.44 17.81 6.62l1.62 2.75c2.56-.19 5.06-.19 7.62 0l1.62-2.75c3.62-6.19 11.06-8.94 17.88-6.56 8.31 2.81 13.94 6 20.94 11.94 5.5 4.69 6.81 12.62 3.19 18.88l-1.62 2.75c1.44 2.12 2.69 4.31 3.81 6.62h3.19c7.25 0 13.38 5.12 14.75 12.25 1.62 8.56 1.69 15.12-.06 24.06-1.31 7.06-7.56 12.19-14.75 12.19h-3.12c-1.12 2.31-2.38 4.5-3.81 6.62l1.56 2.69c3.69 6.38 2.19 14.44-3.44 19.06-6.69 5.5-12.44 8.38-21.25 11.19-6.56 2.06-13.69-.5-17.31-6.31zm0 190.25c-2.56.19-5.06.19-7.62 0l-1.56 2.5c-3.62 5.75-10.69 8.38-17.19 6.31-8.62-2.69-14.38-5.5-21.44-11.31-5.62-4.62-7-12.69-3.38-19l1.56-2.69c-1.44-2.12-2.69-4.31-3.81-6.62h-5.69c-7.25 0-13.38-5.12-14.75-12.25-1.62-8.56-1.69-15.12.06-24.06 1.31-7.06 7.56-12.19 14.75-12.19h5.62c1.12-2.31 2.38-4.5 3.81-6.62l-1.62-2.81c-3.62-6.25-2.25-14.19 3.25-18.94 6.62-5.69 12.31-8.94 20.94-11.88 6.75-2.31 14.19.44 17.81 6.62l1.62 2.75c2.56-.19 5.06-.19 7.62 0l1.62-2.75c3.62-6.19 11.06-8.94 17.88-6.56 8.31 2.81 13.94 6 20.94 11.94 5.5 4.69 6.81 12.62 3.19 18.88l-1.62 2.75c1.44 2.12 2.69 4.31 3.81 6.62h3.19c7.25 0 13.38 5.12 14.75 12.25 1.62 8.56 1.69 15.12-.06 24.06-1.31 7.06-7.56 12.19-14.75 12.19h-3.12c-1.12 2.31-2.38 4.5-3.81 6.62l1.56 2.69c3.69 6.38 2.19 14.44-3.44 19.06-6.69 5.5-12.44 8.38-21.25 11.19-6.56 2-13.69-.56-17.31-6.31zm15.81-197.94c4.19-1.75 8.06-4 11.69-6.75l-6.62-11.44 4-4.69c3-3.56 5.38-7.56 6.88-11.94l2.06-5.81h13.19c.56-4.44.56-9 0-13.44h-13.19l-2.06-5.81c-1.56-4.38-3.88-8.38-6.88-11.94l-4-4.69 6.56-11.5c-3.56-2.75-7.5-5-11.69-6.75l-6.62 11.44-6.06-1.12c-4.56-.88-9.25-.88-13.81 0l-6.06 1.12-6.62-11.44c-4.12 1.69-8.06 4-11.62 6.75l6.62 11.44-4 4.69c-3 3.56-5.38 7.56-6.88 11.94l-2.06 5.81h-13.19c-.56 4.44-.56 9 0 13.44h13.19l2.06 5.81c1.56 4.38 3.88 8.38 6.88 11.94l4 4.69-6.62 11.5c3.56 2.75 7.5 5 11.69 6.75l6.62-11.44 6.06 1.12c4.56.88 9.25.88 13.81 0l6.06-1.12 6.62 11.44zm0 190.19c4.19-1.75 8.06-4 11.69-6.75l-6.62-11.44 4-4.69c3-3.56 5.38-7.56 6.88-11.94l2.06-5.81h13.19c.56-4.44.56-9 0-13.44h-13.19l-2.06-5.81c-1.56-4.38-3.88-8.38-6.88-11.94l-4-4.69 6.62-11.44c-3.56-2.75-7.5-5-11.69-6.75l-6.62 11.44-6.06-1.12c-4.56-.88-9.25-.88-13.81 0l-6.06 1.12-6.62-11.44c-4.19 1.75-8.06 4-11.69 6.75l6.62 11.44-4 4.69c-3 3.56-5.38 7.56-6.88 11.94l-2.06 5.81h-13.19c-.56 4.44-.56 9 0 13.44h13.19l2.06 5.81c1.56 4.38 3.88 8.38 6.88 11.94l4 4.69-6.62 11.44c3.56 2.75 7.5 5 11.69 6.75l6.62-11.44 6.06 1.12c4.56.88 9.25.88 13.81 0l6.06-1.12zm-20.88-218c-11.06 0-20-8.94-20-20s8.94-20 20-20 20 8.94 20 20-8.94 20-20 20zm0 190.18c-11.06 0-20-8.94-20-20s8.94-20 20-20 20 8.94 20 20-8.94 20-20 20z" fill="url(#a)"/></svg>