<svg viewBox="0 0 480 480" xmlns="http://www.w3.org/2000/svg" xmlns:xlink="http://www.w3.org/1999/xlink"><linearGradient id="a" gradientUnits="userSpaceOnUse" x1="40" x2="440" y1="240" y2="240"><stop offset="0" stop-color="#124561"/><stop offset="1" stop-color="#0096d1"/></linearGradient><path d="m440 365v10c0 2.75-2.25 5-5 5h-255c-77.31 0-140-62.69-140-140s62.69-140 140-140 140 62.69 140 140c0 51-27.38 95.5-68.19 120h183.19c2.75 0 5 2.25 5 5zm-260-5c66.19 0 120-53.81 120-120s-53.81-120-120-120-120 53.81-120 120 53.81 120 120 120zm60-120c0 33.12-26.88 60-60 60s-60-26.88-60-60 26.88-60 60-60 60 26.88 60 60zm-20 0c0-22.06-17.94-40-40-40s-40 17.94-40 40 17.94 40 40 40 40-17.94 40-40z" fill="url(#a)"/></svg>