<svg viewBox="0 0 480 480" xmlns="http://www.w3.org/2000/svg" xmlns:xlink="http://www.w3.org/1999/xlink"><linearGradient id="a" gradientUnits="userSpaceOnUse" x1="90" x2="390" y1="240" y2="240"><stop offset="0" stop-color="#124561"/><stop offset="1" stop-color="#0096d1"/></linearGradient><path d="m250 173.69c0 31.81-16.75 57.25-44.38 69.19l7.12 131.75c.75 13.81-10.25 25.38-24 25.38h-37.5c-13.81 0-24.75-11.62-24-25.38l7.12-131.75c-27.69-11.94-44.38-37.38-44.38-69.19 0-19.69 8.44-66.69 9.56-72.56 2.06-12.06 13.06-21.12 28.81-21.12 7.44 0 15.06 2.12 20.81 7 5.25-4.44 12.5-7 20.81-7s15.56 2.56 20.81 7c5.75-4.88 13.38-7 20.81-7 15.56 0 26.75 8.94 28.81 21.12 1.12 5.88 9.56 52.88 9.56 72.56zm-20.06.06c0-18.56-9.25-69.12-9.25-69.12-1-6.19-17.69-6.06-18.44.12v76.5c-.56 7.12-17.62 7.25-18.44.12l-4.62-76.81c-1-6.06-17.44-6.06-18.44 0l-4.62 76.81c-.81 7.19-17.88 7.06-18.44-.12v-76.56c-.75-6.19-17.44-6.31-18.44-.12 0 0-9.25 50.56-9.25 69.12 0 29.44 18.31 50.81 44.81 56.31l-7.62 145.69c-.12 2.38 1.75 4.31 4.06 4.31h37.5c2.38 0 4.19-2 4.06-4.31l-7.62-145.69c26.62-5.5 44.81-27 44.75-56.25zm84 97.19c-26.31-20.69-44-48.12-44-80.94.06-58.94 55.12-110 95.06-110 13.81 0 25 10.81 25 24.06v271.88c0 13.25-11.19 24.06-25 24.06h-35c-14.25 0-26.12-11.69-24.94-26.06zm20.94-9.38-9.88 114.12c-.19 2.31 2.12 4.31 5 4.31h35c2.69 0 5-1.88 5-4.06v-271.87c0-2.19-2.31-4.06-5-4.06-27.88 0-75 41.12-75 90 0 31.88 20.12 53.44 44.88 71.56z" fill="url(#a)"/></svg>