<svg viewBox="0 0 480 480" xmlns="http://www.w3.org/2000/svg" xmlns:xlink="http://www.w3.org/1999/xlink"><linearGradient id="a" gradientUnits="userSpaceOnUse" x1="60" x2="420" y1="240" y2="240"><stop offset="0" stop-color="#124561"/><stop offset="1" stop-color="#0096d1"/></linearGradient><path d="m420 140v220c0 22.09-17.91 40-40 40h-280c-22.09 0-40-17.91-40-40v-220c0-22.09 17.91-40 40-40h11.84c4.13-11.62 15.12-20 28.16-20h40c13.04 0 24.03 8.38 28.16 20h171.84c22.09 0 40 17.91 40 40zm-20 0c0-11.03-8.98-20-20-20v40c0 11.02-8.96 20-20 20h-100c-11.04 0-20-8.98-20-20v-40h-30v200c0 16.57-13.43 30-30 30h-40c-16.57 0-30-13.43-30-30v-200h-10c-11.02 0-20 8.97-20 20v220c0 11.02 8.98 20 20 20h280c11.02 0 20-8.98 20-20zm-270 180c0 5.51 4.49 10 10 10h40c5.51 0 10-4.49 10-10v-210c0-5.51-4.49-10-10-10h-40c-5.51 0-10 4.49-10 10zm170-100v20c0 11.02-8.96 20-20 20h-20c-11.04 0-20-8.98-20-20v-20c0-11.03 8.96-20 20-20h20c11.04 0 20 8.97 20 20zm0 80v20c0 11.02-8.96 20-20 20h-20c-11.04 0-20-8.98-20-20v-20c0-11.03 8.96-20 20-20h20c11.04 0 20 8.97 20 20zm-40-140h100v-40h-100zm20 60h-20v20h20zm0 80h-20v20h20zm100-80v20c0 11.02-8.96 20-20 20h-20c-11.04 0-20-8.98-20-20v-20c0-11.03 8.96-20 20-20h20c11.04 0 20 8.97 20 20zm0 80v20c0 11.02-8.96 20-20 20h-20c-11.04 0-20-8.98-20-20v-20c0-11.03 8.96-20 20-20h20c11.04 0 20 8.97 20 20zm-20-80h-20v20h20zm0 80h-20v20h20z" fill="url(#a)"/></svg>