<svg viewBox="0 0 480 480" xmlns="http://www.w3.org/2000/svg" xmlns:xlink="http://www.w3.org/1999/xlink"><linearGradient id="a" gradientUnits="userSpaceOnUse" x1="60" x2="420" y1="240" y2="240"><stop offset="0" stop-color="#124561"/><stop offset="1" stop-color="#0096d1"/></linearGradient><path d="m420 264.77v46.03c0 38.22-31.34 69.2-70 69.2h-22.55c-36.63 0-67.07-27.91-69.81-64.03l-2.73-35.97h-29.83l-2.73 35.97c-2.74 36.11-33.17 64.03-69.81 64.03h-22.55c-38.66 0-70-30.98-70-69.2v-46.03c0-3.18.38-6.33 1.12-9.41l28.41-117.37c3.38-13.58 12.29-25.14 24.44-31.82 12.19-6.69 26.7-8.01 39.88-3.59l14.28 4.76c2.62.87 4.04 3.71 3.16 6.32l-3.16 9.49c-.87 2.62-3.71 4.04-6.32 3.16l-12.67-4.23c-8.19-2.73-17.34-2.68-24.99 1.34-7.69 4.04-13.08 10.91-15.18 19.31l-25.36 107.02c13.98-4.77 33.28-9.42 55.99-9.42 23.34 0 50.16 5 78.12 19.67h44.57c27.96-14.67 54.79-19.67 78.13-19.67s42.01 4.64 55.98 9.41l-25.38-107.15c-2.46-9.83-9.6-17.67-19.69-21.15-6.29-2.17-13.21-1.81-19.52.3l-13.62 4.54c-2.62.88-5.45-.54-6.32-3.16l-3.16-9.49c-.88-2.62.54-5.45 3.16-6.33l14.28-4.76c13.22-4.39 27.71-3.06 39.88 3.61 12.17 6.68 21.07 18.24 24.43 31.71l28.43 117.5c.74 3.08 1.12 6.24 1.12 9.41zm-214.67 11.26c-20.95-10.43-43.01-15.71-65.72-15.71-26.35 0-47.86 7.18-59.61 12.16v38.31c0 27.13 22.43 49.2 50 49.2h22.55c26.02 0 47.92-20 49.86-45.54l2.92-38.43zm194.67-3.54c-11.74-4.98-33.24-12.16-59.59-12.16-22.73 0-44.79 5.28-65.74 15.71l2.92 38.43c1.94 25.54 23.84 45.54 49.86 45.54h22.55c27.57 0 50-22.07 50-49.2v-38.31z" fill="url(#a)"/></svg>