<svg viewBox="0 0 480 480" xmlns="http://www.w3.org/2000/svg" xmlns:xlink="http://www.w3.org/1999/xlink"><linearGradient id="a" gradientUnits="userSpaceOnUse" x1="100.03" x2="379.97" y1="240" y2="240"><stop offset="0" stop-color="#124561"/><stop offset="1" stop-color="#0096d1"/></linearGradient><path d="m379.97 185v75.25c0 14.44-1.44 28.94-4.25 43.12l-12.88 64.5c-3.75 18.62-20.25 32.12-39.25 32.12h-112.88c-13.44 0-25.88-6.69-33.31-17.88l-71.06-107.06c-11.06-15.81-7.19-37.69 8.62-48.75 18.75-13.12 37.88-3.19 45.06 4.19v-95.5c0-19.31 15.69-35 35-35 6.06 0 11.75 1.56 16.69 4.25 4.56-14.06 17.75-24.25 33.31-24.25s28.75 10.19 33.31 24.25c4.94-2.69 10.62-4.25 16.69-4.25 19.31 0 35 15.69 35 35v18.38c4.56-2.19 9.62-3.38 15-3.38 19.31 0 35 15.69 34.94 35zm-19.94 0c0-8.31-6.69-15-15-15s-15 6.69-15 15v50c0 2.75-2.25 5-5 5h-10c-2.75 0-5-2.25-5-5v-100c0-8.31-6.69-15-15-15s-15 6.69-15 15v100c0 2.75-2.25 5-5 5h-10c-2.75 0-5-2.25-5-5v-120c0-8.31-6.69-15-15-15s-15 6.69-15 15v120c0 2.75-2.25 5-5 5h-10c-2.75 0-5-2.25-5-5v-100c0-8.31-6.69-15-15-15s-15 6.69-15 15v142.56c0 4.94-6.31 6.88-9.12 2.88l-23.62-34c-2.12-3.06-11-10.62-20.88-3.69-6.81 4.75-8.44 14.06-3.69 20.88l71.38 107.44c3.75 5.56 10 8.94 16.69 8.94h112.88c9.56 0 17.75-6.69 19.62-16.06l12.88-64.5c2.56-12.94 3.88-26.06 3.88-39.25v-75.19zm-49.25 128.25-45.38 44.56c-2.94 2.88-7.69 2.88-10.62 0l-45.38-44.56c-13.19-12.94-12.44-34.44 2.31-46.38 3.75-3.06 10.38-6.88 18.94-6.88s18.25 3.5 29.38 14.44c11.12-10.94 21.19-14.44 29.38-14.44s15.12 3.81 18.94 6.88c14.75 11.94 15.5 33.44 2.44 46.38zm-21.38-33.25c-4.19 0-9.69 3.06-15.38 8.69l-14 13.81-14-13.81c-5.69-5.56-11.19-8.69-15.38-8.69-8.56 0-14.75 11.62-7.25 19l36.62 36 36.62-36c7.5-7.38 1.31-19-7.25-19z" fill="url(#a)"/></svg>