<svg viewBox="0 0 480 480" xmlns="http://www.w3.org/2000/svg" xmlns:xlink="http://www.w3.org/1999/xlink"><linearGradient id="a" gradientUnits="userSpaceOnUse" x1="120" x2="360" y1="240" y2="240"><stop offset="0" stop-color="#124561"/><stop offset="1" stop-color="#0096d1"/></linearGradient><path d="m360 95v50c0 8.25-6.75 15-15 15h-5v220c0 11-9 20-20 20h-160c-11 0-20-9-20-20v-220h-5c-8.25 0-15-6.75-15-15v-50c0-8.25 6.75-15 15-15h210c8.25 0 15 6.75 15 15zm-20 5h-200v40h200zm-20 60h-160v220h160zm-140 115v-30c0-2.75 2.25-5 5-5h35v-35c0-2.75 2.25-5 5-5h30c2.75 0 5 2.25 5 5v35h35c2.75 0 5 2.25 5 5v30c0 2.75-2.25 5-5 5h-35v35c0 2.75-2.25 5-5 5h-30c-2.75 0-5-2.25-5-5v-35h-35c-2.75 0-5-2.25-5-5z" fill="url(#a)"/></svg>