<svg viewBox="0 0 480 480" xmlns="http://www.w3.org/2000/svg" xmlns:xlink="http://www.w3.org/1999/xlink"><linearGradient id="a" gradientUnits="userSpaceOnUse" x1="80" x2="400" y1="240" y2="240"><stop offset="0" stop-color="#124561"/><stop offset="1" stop-color="#0096d1"/></linearGradient><path d="m400 330c0 38.62-31.38 70-70 70-21.25 0-40.06-9.69-52.94-24.69-46 9.06-72.88-25.12-82.81-35.06l-45.25 52.25c-6 7-20.5 12.12-31.44 1.12l-31.31-31.31c-8.69-8.75-8.31-23.19 1.12-31.44l52.25-45.38-12.62-12.69c-30.75-30.88-30.75-81.06 0-111.88 41.44-41.5 70.94-80.94 137.06-80.94 36.31 0 70.44 14.19 96.12 39.88 44.19 44.25 51 111.44 21.56 163.38 11.19 12.44 18.25 28.75 18.25 46.75zm-134.94 25.75c-7.5-18.81-4.81-34.12-3.56-40.12l-129.06-129.06c-13.56 22.75-10.81 52.56 8.69 72.12l27.81 27.88-68.5 61.62 31.31 31.38 61.5-68.69c27.75 27.81 39.5 45.81 71.81 44.88zm-119.94-184.75 124.38 124.38c18.88-32.75 61.12-46.56 96.56-25.06 23.12-43.88 16.81-99.38-20-136.25-45.31-45.44-118.62-45.44-163.94 0l-37 36.94zm234.88 159c0-27.56-22.44-50-50-50s-50 22.44-50 50 22.44 50 50 50 50-22.44 50-50z" fill="url(#a)"/></svg>