<svg viewBox="0 0 480 480" xmlns="http://www.w3.org/2000/svg" xmlns:xlink="http://www.w3.org/1999/xlink"><linearGradient id="a" gradientUnits="userSpaceOnUse" x1="80" x2="400" y1="240" y2="240"><stop offset="0" stop-color="#124561"/><stop offset="1" stop-color="#0096d1"/></linearGradient><path d="m400 114.06c0 158.31-128.31 285.94-285.94 285.94-9.12 0-17-6.25-19.06-15.19l-14.5-62.94c-2.12-9.19 2.62-18.56 11.31-22.31l67.75-29.06c7.94-3.44 17.31-1.12 22.81 5.56l27.56 33.69c43.31-21.25 78.5-56.5 99.75-99.75l-33.69-27.56c-6.69-5.5-9-14.88-5.56-22.81l29.06-67.81c3.75-8.69 13.19-13.44 22.38-11.31l63 14.56c8.88 2 15.12 9.88 15.12 19zm-20.06.44-62.25-14.38-28.75 67.12 45.5 37.19c-30.25 64.5-65.31 99.69-130.06 130.06l-37.19-45.5-67.12 28.75 14.38 62.25c146.56-.19 265.38-118.94 265.5-265.5z" fill="url(#a)"/></svg>