<svg viewBox="0 0 480 480" xmlns="http://www.w3.org/2000/svg" xmlns:xlink="http://www.w3.org/1999/xlink"><linearGradient id="a" gradientUnits="userSpaceOnUse" x1="50" x2="430" y1="240" y2="240"><stop offset="0" stop-color="#124561"/><stop offset="1" stop-color="#0096d1"/></linearGradient><path d="m428.06 164.41-32.19 65.06c-2.25 4.56-6.12 8-10.94 9.62-4.88 1.69-10.06 1.31-14.56-1l-30.31-15v148.56c0 15.62-12.56 28.31-28 28.31h-144c-15.44 0-28-12.69-28-28.31v-148.62l-30.38 15c-4.5 2.25-9.69 2.69-14.5 1-4.81-1.56-8.69-5-10.94-9.62l-32.19-65c-2.31-4.56-2.69-9.75-1.06-14.62 1.56-4.88 4.94-8.81 9.5-11.12l117.12-58.62 4.94 6.94c9.81 13.75 32.38 22.62 57.44 22.62s47.62-8.88 57.44-22.62l4.94-6.94 117.12 58.62c4.5 2.31 7.88 6.25 9.5 11.12s1.25 10.06-.94 14.62zm-18.38-8.13-101.56-50.88c-15 15.19-40.12 24.38-68.06 24.38s-53.06-9.19-68.06-24.38l-102.56 51.38 32.69 63.69 57.88-29.75v181.06c0 4.44 3.56 8.06 8 8.06h144c4.44 0 8-3.62 8-8.06v-181.06l59.19 29.25 30.5-63.69z" fill="url(#a)"/></svg>