<svg viewBox="0 0 480 480" xmlns="http://www.w3.org/2000/svg" xmlns:xlink="http://www.w3.org/1999/xlink"><linearGradient id="a" gradientUnits="userSpaceOnUse" x1="60" x2="420" y1="240" y2="240"><stop offset="0" stop-color="#124561"/><stop offset="1" stop-color="#0096d1"/></linearGradient><path d="m400 100v280h15c2.76 0 5 2.24 5 5v10c0 2.76-2.24 5-5 5h-350c-2.76 0-5-2.24-5-5v-10c0-2.76 2.24-5 5-5h14.99v-280h-14.99c-2.76 0-5-2.24-5-5v-10c0-2.76 2.24-5 5-5h350c2.76 0 5 2.24 5 5v10c0 2.76-2.24 5-5 5zm-20 0h-280.01v280h100.01v-50c0-16.54 13.46-30 30-30h20c16.54 0 30 13.46 30 30v50h100zm-240 52v-24c0-4 4-8 8-8h24c4 0 8 4 8 8v24c0 4-4 8-8 8h-24c-4 0-8-4-8-8zm0 60v-24c0-4 4-8 8-8h24c4 0 8 4 8 8v24c0 4-4 8-8 8h-24c-4 0-8-4-8-8zm20.11 100.69c7.88-36.26 41.32-63.01 79.89-63.01s72.01 26.74 79.91 63.01c.6 2.76-1.46 5.44-4.34 5.84l-10.16 1.41c-2.69.38-5.07-1.4-5.67-3.98-6.23-26.77-31.09-46.42-59.74-46.42s-53.51 19.66-59.74 46.42c-.6 2.58-2.98 4.35-5.67 3.98l-10.16-1.41c-2.88-.4-4.94-3.08-4.34-5.84zm59.89-160.69v-24c0-4 4-8 8-8h24c4 0 8 4 8 8v24c0 4-4 8-8 8h-24c-4 0-8-4-8-8zm0 60v-24c0-4 4-8 8-8h24c4 0 8 4 8 8v24c0 4-4 8-8 8h-24c-4 0-8-4-8-8zm40 118c0-5.53-4.47-10-10-10h-20c-5.52 0-10 4.47-10 10v50h40zm40-178v-24c0-4 4-8 8-8h24c4 0 8 4 8 8v24c0 4-4 8-8 8h-24c-4 0-8-4-8-8zm0 60v-24c0-4 4-8 8-8h24c4 0 8 4 8 8v24c0 4-4 8-8 8h-24c-4 0-8-4-8-8z" fill="url(#a)"/></svg>