<svg viewBox="0 0 480 480" xmlns="http://www.w3.org/2000/svg" xmlns:xlink="http://www.w3.org/1999/xlink"><linearGradient id="a" gradientUnits="userSpaceOnUse" x1="113.65" x2="366.35" y1="240" y2="240"><stop offset="0" stop-color="#124561"/><stop offset="1" stop-color="#0096d1"/></linearGradient><path d="m314.25 347.94-4.38-5.19 2.41 37.24h20.21c7.87 0 17.11 5.72 20.62 12.76.29.58.53 1.58.53 2.24 0 2.76-2.24 5-5 5h-150c-2.74-.02-4.97-2.25-4.97-5 0-.65.24-1.65.53-2.24 3.52-7.04 12.76-12.75 20.62-12.76h20.19l7.5-116.08-103.32-11.21c-14.1-1.56-25.55-14.34-25.55-28.53s10.82-26.2 24.15-28.34l104.72-16.59c2.38-.38 5.46-2.27 6.88-4.21l60.11-83.16c4.73-6.55 15.13-11.86 23.21-11.86 15.81 0 28.64 12.83 28.64 28.64 0 3.01-.9 7.73-2.01 10.54l-37.79 95.42c-.41 1.03-.74 2.76-.74 3.86 0 1.21.39 3.09.88 4.19l42.34 97.24c1.28 2.99 2.33 8.07 2.33 11.32 0 15.85-12.86 28.71-28.71 28.71-7.57 0-17.57-4.77-22.33-10.66zm16.65-11.18c1.43 1.79 4.46 3.25 6.75 3.25 1.34 0 3.36-.57 4.5-1.26l.11-.06c2.29-1.39 4.15-4.7 4.15-7.38 0-.99-.32-2.54-.72-3.45l-42.33-97.2c-1.4-3.22-2.54-8.67-2.54-12.18 0-3.21.96-8.24 2.14-11.22l37.79-95.42c.33-.84.6-2.26.6-3.16 0-4.77-3.87-8.64-8.64-8.64-2.43 0-5.56 1.6-6.99 3.56l-60.13 83.18c-4.1 5.67-13.03 11.16-19.94 12.25l-104.71 16.56c-4.02.64-7.28 4.46-7.28 8.53v.22.12c.09 4.19 3.55 7.95 7.72 8.4l103.75 11.25c6.95.75 16.15 5.79 20.52 11.25l65.26 81.43zm-38.66 43.23-4.11-62.9-26.98-31.88-6.14 94.78h37.22zm-3.6-160c0 8.28-6.72 15-15 15s-15-6.72-15-15 6.72-15 15-15 15 6.72 15 15z" fill="url(#a)"/></svg>