<svg viewBox="0 0 480 480" xmlns="http://www.w3.org/2000/svg" xmlns:xlink="http://www.w3.org/1999/xlink"><linearGradient id="a" gradientUnits="userSpaceOnUse" x1="100" x2="380" y1="240" y2="240"><stop offset="0" stop-color="#124561"/><stop offset="1" stop-color="#0096d1"/></linearGradient><path d="m380 354v16c0 16.56-13.44 30-30 30h-220c-16.56 0-30-13.44-30-30v-16c0-45.88 36.81-83.06 82.56-83.81l24.81 86.06 21.19-63.56-15.62-15.62c-6.31-6.31-1.88-17.06 7.06-17.06h40c8.88 0 13.38 10.75 7.06 17.06l-15.62 15.62 21.19 63.56 24.81-86.12c45.75.81 82.56 38 82.56 83.88zm-186.56 26-25.38-87.81c-27.56 7.12-48.06 32.31-48.06 61.81v16c0 5.5 4.5 10 10 10zm-33.44-220c0-44.19 35.81-80 80-80s80 35.81 80 80-35.81 80-80 80-80-35.81-80-80zm20 0c0 33.06 26.94 60 60 60s60-26.94 60-60-26.94-60-60-60-60 26.94-60 60zm79.44 220-19.44-58.38-19.44 58.38zm100.5-10v-16c0-29.5-20.5-54.69-48.06-61.81l-25.31 87.81h63.44c5.5 0 10-4.5 10-10h-.06z" fill="url(#a)"/></svg>