<svg viewBox="0 0 480 480" xmlns="http://www.w3.org/2000/svg" xmlns:xlink="http://www.w3.org/1999/xlink"><linearGradient id="a" gradientUnits="userSpaceOnUse" x1="60" x2="420" y1="240" y2="240"><stop offset="0" stop-color="#124561"/><stop offset="1" stop-color="#0096d1"/></linearGradient><path d="m163.14 126.4-66.03 226.4c-1.24 4.27-5.16 7.2-9.6 7.2h-17.5c-7.14 0-11.97-7.26-9.23-13.84l92.95-223.08c.71-1.7 2.77-3.08 4.61-3.08 3.33 0 5.73 3.2 4.8 6.4zm97.5 172.55 4.31 50c.51 5.91-3.27 11.05-8.11 11.05h-33.68c-4.84 0-8.62-5.14-8.11-11.05l4.31-50c.44-5.09 3.94-8.95 8.11-8.95h25.07c4.18 0 7.67 3.86 8.11 8.95zm-37.84-40 2.58-30c.44-5.09 3.94-8.95 8.11-8.95h13.02c4.17 0 7.67 3.86 8.11 8.95l2.58 30c.51 5.91-3.27 11.05-8.11 11.05h-18.19c-4.84 0-8.62-5.14-8.11-11.05zm5.78-67.24 2.34-27.24c.22-2.54 1.97-4.48 4.06-4.48h10.03c2.09 0 3.84 1.93 4.06 4.48l2.34 27.24c.39 4.43-2.45 8.29-6.08 8.29h-10.66c-3.63 0-6.47-3.86-6.09-8.29zm4.93-57.23.86-10c.22-2.54 1.97-4.48 4.06-4.48h3.14c2.09 0 3.84 1.93 4.06 4.48l.86 10c.26 2.95-1.63 5.52-4.06 5.52h-4.87c-2.42 0-4.31-2.58-4.06-5.52zm176.48 225.52h-17.5c-4.14 0-8.44-3.23-9.6-7.2l-66.03-226.4c-.93-3.2 1.47-6.4 4.8-6.4 1.84 0 3.9 1.38 4.61 3.08l92.94 223.08c2.75 6.58-2.09 13.84-9.22 13.84z" fill="url(#a)"/></svg>