<svg viewBox="0 0 480 480" xmlns="http://www.w3.org/2000/svg" xmlns:xlink="http://www.w3.org/1999/xlink"><linearGradient id="a" gradientUnits="userSpaceOnUse" x1="40" x2="440" y1="240" y2="240"><stop offset="0" stop-color="#124561"/><stop offset="1" stop-color="#0096d1"/></linearGradient><path d="m126.19 109.71-2.67 27.71c-.41 4.16-2.56 8-5.94 10.5-3.38 2.51-7.78 3.45-11.8 2.66l-27.31-5.5 17.67 21.49c1.88 2.27 3.4 6.49 3.4 9.44 0 .62-.08 1.63-.17 2.25-.62 4.15-2.99 7.88-6.51 10.19l-23.16 15.4 27.71 2.69c4.19.41 8.02 2.58 10.52 5.96 2.5 3.37 3.46 7.66 2.64 11.78l-8.34 41.41c-.96 4.74-5.14 8.02-9.79 8.02-.66 0-1.33-.06-1.99-.19-5.41-1.09-8.93-6.36-7.83-11.78l7.22-35.84-36.39-3.53c-6.36-.62-11.46-5.02-13.01-11.21-1.54-6.18.88-12.46 6.19-15.99l30.45-20.24-23.23-28.22c-4.06-4.91-4.57-11.63-1.29-17.11s9.4-8.26 15.71-6.94l35.83 7.22 3.54-36.39c.61-6.32 5-11.44 11.19-12.99 6.27-1.58 12.5.88 16.04 6.2l20.24 30.43 28.23-23.24c4.22-3.51 10.54-2.92 14.06 1.37 3.51 4.27 2.91 10.56-1.37 14.08l-32.6 26.84c-3.28 2.69-7.64 3.83-11.66 3.22-4.16-.62-7.87-3-10.19-6.49l-15.41-23.18zm312.12 181.12-23.29 86.93c-4.28 15.98-20.76 25.49-36.74 21.21l-9.66-2.59c-15.98-4.28-25.49-20.76-21.21-36.74l5.18-19.32-154.55-41.41-5.17 19.32c-4.28 15.98-20.76 25.49-36.74 21.21l-9.66-2.59c-15.98-4.28-25.49-20.76-21.21-36.74l23.29-86.93c5.83-21.77 25.21-36.08 46.62-36.8l27.44-42.19c11.81-18.14 33.94-26.63 54.86-21.03l99.21 26.59c20.91 5.61 35.84 24.02 36.99 45.64l2.67 50.26c18.19 11.33 27.81 33.41 21.99 55.18zm-259.61 2.9-28.98-7.76-5.17 19.32c-1.43 5.33 1.75 10.83 7.07 12.25l9.66 2.59c5.32 1.43 10.82-1.74 12.25-7.07zm219.07-44.81-193.19-51.76c-15.98-4.28-32.46 5.24-36.74 21.21l-12.94 48.29 202.84 54.35 19.32 5.17 28.98 7.76 5.17-19.32 7.76-28.98c4.28-15.97-5.24-32.46-21.21-36.73zm-156.52 4.59c-1.94 7.23-8.72 18.42-32.39 12.08l-6.11-1.7c-15.67-4.2-24.32-17.39-20.58-31.37 3.74-13.97 17.84-21.07 33.51-16.87 14.55 3.9 29.56 22.96 25.58 37.86zm-14.5-3.87c1.55-5.78-7.43-17.48-14.96-19.49-7.54-2.02-13.59.49-15.14 6.26s2.44 10.97 9.97 12.99c1.89.51 3.99 1.13 6.11 1.7 6.36 1.7 12.86 2.86 14.02-1.46zm-9.92-69.92 179.04 47.97-2.19-41.26c-.69-13.01-9.61-24.02-22.19-27.39l-99.21-26.58c-12.58-3.38-25.81 1.7-32.91 12.62l-22.53 34.63zm182.66 111.04c-3.74 13.98-17.84 21.07-33.51 16.87l-6.14-1.58c-23.67-6.34-23.95-19.42-22.01-26.65 3.99-14.91 26.52-23.91 41.07-20.01 15.67 4.2 24.33 17.39 20.58 31.37zm-24.46-16.88c-7.54-2.02-21.16 3.62-22.71 9.4-1.16 4.33 5.05 6.58 11.41 8.28 2.12.57 4.26 1.07 6.14 1.58 7.53 2.02 13.59-.49 15.14-6.26 1.54-5.78-2.44-10.97-9.97-13zm25.83 79.38-28.98-7.76-5.17 19.32c-1.43 5.33 1.75 10.83 7.07 12.25l9.66 2.59c5.33 1.43 10.82-1.74 12.25-7.07l5.17-19.32z" fill="url(#a)"/></svg>