<svg viewBox="0 0 480 480" xmlns="http://www.w3.org/2000/svg" xmlns:xlink="http://www.w3.org/1999/xlink"><linearGradient id="a" gradientUnits="userSpaceOnUse" x1="59.99" x2="420.01" y1="240" y2="240"><stop offset="0" stop-color="#124561"/><stop offset="1" stop-color="#0096d1"/></linearGradient><path d="m419.99 314.34c-.31 9.75-4.88 18.88-12.5 25l-63.06 50.44c-8.25 6.62-18.5 10.25-29.12 10.25h-250.32c-2.75 0-5-2.25-5-5v-10c0-2.75 2.25-5 5-5h250.31c6.06 0 11.94-2 16.69-5.81l63-50.44c6.38-5.06 6.88-14.69.56-20.38-2.44-2.19-5.5-3.25-8.62-3.25s-6.5 1.12-9.12 3.25l-38.5 30.75c-4.75 3.75-10.62 5.81-16.69 5.81h-112.62c-5.5 0-10-4.5-10-10s4.5-10 10-10h55c8.31 0 15-6.69 15-15s-6.69-15-15-15h-91.69c-8.62 0-17.06 2.81-24 8l-29.31 22h-55c-2.75 0-5-2.25-5-5v-10c0-2.75 2.25-5 5-5h48.31l24-18c10.38-7.81 23-12 36-12h90.19c17.62 0 33.62 12.38 36.12 29.81 1.06 7.25-.12 14.19-3 20.19h26c1.56 0 3-.5 4.19-1.44l38.5-30.81c6.12-4.94 13.81-7.62 21.62-7.62s16 3 22 8.38c7.31 6.62 11.38 16.12 11.06 25.88zm-240-133.12c0-25 35.69-75.44 52-97.25 2-2.69 5-4 8-4s6 1.31 8 4c16.31 21.81 52 72.25 52 97.25 0 32.44-26.88 58.75-60 58.75s-60-26.31-60-58.75zm20 0c0 21.38 17.94 38.75 40 38.75s40-17.38 40-38.75c0-9.69-12.44-36-40-74.38-27.56 38.38-40 64.69-40 74.38z" fill="url(#a)"/></svg>