<svg viewBox="0 0 1701.7 1105.51" xmlns="http://www.w3.org/2000/svg" xmlns:xlink="http://www.w3.org/1999/xlink"><clipPath id="a"><path d="m0 0h1701.7v1105.51h-1701.7z"/></clipPath><clipPath id="b"><path d="m0 0h1701.7v1105.51h-1701.7z"/></clipPath><g fill="#181716"><g clip-path="url(#a)"><path d="m142.19 716.79h26.41c17.48 0 29.05 6.79 29.05 23.26v1.26c0 10.44-4.65 16.47-12.7 19.49 8.55 3.02 13.46 9.18 13.46 19.62v1.01c0 16.72-11.44 24.02-28.92 24.02h-27.29v-88.65zm29.17 39.11c8.55 0 13.96-4.02 13.96-12.83v-1.76c0-10.06-7.17-12.58-17.1-12.58h-13.71v27.16h16.85zm-2.26 37.73c9.81 0 17.1-3.02 17.1-13.45v-1.64c0-9.3-6.79-12.83-15.85-12.83h-15.84v27.92z"/><path d="m210.87 780.05v-45.27h11.69v46.9c0 9.56 7.04 14.34 14.96 14.34s14.84-5.28 14.84-14.34v-46.9h11.82v45.27c0 16.1-10.56 26.66-26.66 26.66s-26.66-10.56-26.66-26.66"/><path d="m279.01 734.78h11.07v9.93c2.01-4.65 8.55-10.82 19.24-10.82 14.21 0 23.01 9.81 23.01 27.41v44.14h-11.82v-42.75c0-11.82-3.77-18.99-14.96-18.99s-14.84 6.16-14.84 19.62v42.12h-11.69v-70.67z"/><path d="m345.43 778.91v-17.61c0-17.6 8.8-27.41 23.01-27.41 10.69 0 15.97 4.9 17.98 9.56v-32.57h12.32v94.56h-11.07v-9.68c-2.64 5.15-7.42 10.82-19.24 10.82-14.21 0-23.01-9.68-23.01-27.67m26.8 17.99c9.56 0 14.84-6.79 14.84-19.49v-15.09c0-12.2-5.53-18.61-14.84-18.61-9.93 0-14.96 7.04-14.96 19.24v14.46c0 12.58 5.16 19.49 14.96 19.49"/><path d="m412.63 778.91v-17.1c0-17.23 9.81-28.04 26.66-28.04s26.53 10.06 26.53 27.41v12.2h-41.5v7.92c0 10.06 6.54 15.59 14.96 15.59s14.84-5.41 14.84-13.2v-1.13h11.69v.5c0 12.95-9.81 23.64-26.53 23.64s-26.66-10.81-26.66-27.79m41.51-14.08v-4.4c0-11.7-5.66-16.73-14.84-16.73s-14.96 5.41-14.96 15.72v5.41z"/><path d="m476.97 781.18h11.7c0 10.06 6.16 15.47 15.59 15.47 8.17 0 14.34-4.15 14.34-10.81 0-15.47-39.61-5.79-39.61-32.07 0-12.57 9.18-19.99 24.77-19.99 17.1 0 25.9 8.43 25.9 24.65h-11.07c0-10.81-5.16-14.59-14.84-14.59-8.8 0-13.2 3.65-13.2 9.68 0 17.1 39.86 6.66 39.86 32.44 0 12.58-9.05 20.75-26.16 20.75s-27.29-9.68-27.29-25.53"/><path d="m536.83 734.78h13.08l16.98 54.82 16.72-54.82h13.08l-23.77 70.67h-12.19z"/><path d="m603.54 778.91v-17.1c0-17.23 9.81-28.04 26.66-28.04s26.53 10.06 26.53 27.41v12.2h-41.5v7.92c0 10.06 6.54 15.59 14.96 15.59s14.84-5.41 14.84-13.2v-1.13h11.69v.5c0 12.95-9.81 23.64-26.53 23.64s-26.66-10.81-26.66-27.79m41.51-14.08v-4.4c0-11.7-5.66-16.73-14.84-16.73s-14.96 5.41-14.96 15.72v5.41z"/><path d="m670.33 734.78h11.07v12.83c2.14-8.42 9.68-14.33 20.5-13.71v11.7c-13.08-.63-19.87 5.91-19.87 18.99v40.87h-11.69v-70.67z"/><path d="m725.04 795.76v9.68h-11.07v-94.56h11.7v32.57c2.01-4.65 7.92-9.56 18.61-9.56 14.21 0 23.01 9.81 23.01 27.41v17.61c0 17.98-8.8 27.67-23.01 27.67-11.44 0-16.22-4.9-19.24-10.82m15.47 1.14c9.81 0 14.96-6.92 14.96-19.49v-14.46c0-12.2-5.03-19.24-14.96-19.24-9.31 0-14.84 6.41-14.84 18.61v15.09c0 12.7 5.28 19.49 14.84 19.49"/><path d="m779.8 778.91v-17.61c0-18.11 9.3-27.54 22.89-27.54 10.81 0 17.23 6.29 19.24 10.81v-9.81h11.07v70.67h-11.07v-9.68c-2.01 4.65-8.42 10.82-19.24 10.82-14.08 0-22.89-9.81-22.89-27.66m26.66 17.86c9.68 0 14.84-6.79 14.84-19.49v-14.96c0-12.32-5.53-18.74-14.84-18.74s-14.84 6.67-14.84 19.24v14.46c0 12.83 5.03 19.49 14.84 19.49"/><path d="m848.56 734.78h11.07v9.93c2.01-4.65 8.55-10.82 19.24-10.82 14.21 0 23.01 9.81 23.01 27.41v44.14h-11.82v-42.75c0-11.82-3.77-18.99-14.96-18.99s-14.84 6.16-14.84 19.62v42.12h-11.69v-70.67z"/><path d="m914.98 778.91v-17.61c0-17.6 8.8-27.41 23.01-27.41 10.69 0 15.97 4.9 17.98 9.56v-32.57h12.32v94.56h-11.07v-9.68c-2.64 5.15-7.42 10.82-19.24 10.82-14.21 0-23.01-9.68-23.01-27.67m26.8 17.99c9.56 0 14.84-6.79 14.84-19.49v-15.09c0-12.2-5.53-18.61-14.84-18.61-9.93 0-14.97 7.04-14.97 19.24v14.46c0 12.58 5.16 19.49 14.97 19.49"/><path d="m1009.97 716.79h28.42c17.48 0 29.68 11.19 29.68 32.82v22.89c0 21.5-12.2 32.95-29.68 32.95h-28.42v-88.65zm27.04 76.84c10.69 0 18.74-5.53 18.74-24.02v-17.23c0-18.23-7.92-23.64-18.74-23.64h-14.71v64.89z"/><path d="m1081.69 778.91v-17.1c0-17.23 9.81-28.04 26.66-28.04s26.53 10.06 26.53 27.41v12.2h-41.5v7.92c0 10.06 6.54 15.59 14.96 15.59s14.84-5.41 14.84-13.2v-1.13h11.69v.5c0 12.95-9.81 23.64-26.53 23.64s-26.66-10.81-26.66-27.79m41.5-14.08v-4.4c0-11.7-5.66-16.73-14.84-16.73s-14.96 5.41-14.96 15.72v5.41z"/><path d="m1149.39 780.05v-45.27h11.69v46.9c0 9.56 7.04 14.34 14.96 14.34s14.84-5.28 14.84-14.34v-46.9h11.82v45.27c0 16.1-10.56 26.66-26.66 26.66s-26.66-10.56-26.66-26.66"/><path d="m1220.79 779.17v-34.33h-7.04l-.13-8.93c7.92 0 11.69-3.77 11.69-15.22h7.29v14.08h15.47v10.06h-15.47v32.69c0 16.6.63 18.74 16.1 17.86v10.69c-22.01 2.26-27.92-5.53-27.92-26.91"/><path d="m1260.3 781.18h11.69c0 10.06 6.16 15.47 15.59 15.47 8.17 0 14.34-4.15 14.34-10.81 0-15.47-39.61-5.79-39.61-32.07 0-12.57 9.18-19.99 24.77-19.99 17.1 0 25.9 8.43 25.9 24.65h-11.06c0-10.81-5.16-14.59-14.84-14.59-8.8 0-13.2 3.65-13.2 9.68 0 17.1 39.86 6.66 39.86 32.44 0 12.58-9.05 20.75-26.16 20.75s-27.29-9.68-27.29-25.53"/><path d="m1326.51 778.91v-16.85c0-17.35 9.81-28.17 26.66-28.17s26.53 10.31 26.53 28.17v.25h-11.69v-.25c0-11.44-4.78-17.23-14.84-17.23s-14.97 5.53-14.97 18.74v15.47c0 10.31 4.91 16.85 14.97 16.85s14.84-5.91 14.84-17.23v-.38h11.69v.38c0 17.35-9.56 28.04-26.53 28.04s-26.66-10.81-26.66-27.79"/><path d="m1392.78 710.88h11.69v33.83c2.39-7.42 10.19-10.94 18.99-10.94 12.45 0 22.63 7.92 22.63 26.28v45.4h-11.82v-43.13c0-11.82-3.27-18.61-14.96-18.61s-14.84 6.16-14.84 19.62v42.13h-11.69v-94.56z"/><path d="m1460.16 778.91v-17.1c0-17.23 9.81-28.04 26.66-28.04s26.53 10.06 26.53 27.41v12.2h-41.5v7.92c0 10.06 6.54 15.59 14.96 15.59s14.84-5.41 14.84-13.2v-1.13h11.69v.5c0 12.95-9.81 23.64-26.53 23.64s-26.66-10.81-26.66-27.79m41.51-14.08v-4.4c0-11.7-5.66-16.73-14.84-16.73s-14.96 5.41-14.96 15.72v5.41z"/><path d="m1527.95 734.78h11.06v12.83c2.14-8.42 9.68-14.33 20.5-13.71v11.7c-13.08-.63-19.87 5.91-19.87 18.99v40.87h-11.69v-70.67z"/><path d="m142.19 936.24v-59.1h12.32v59.48c0 12.95 8.43 18.49 17.23 18.49 9.56 0 17.35-6.29 17.35-18.49v-59.48h12.32v59.1c0 18.11-12.32 30.68-29.68 30.68s-29.55-12.58-29.55-30.68"/><path d="m217.94 895.12h11.07v9.93c2.01-4.65 8.55-10.82 19.24-10.82 14.21 0 23.01 9.81 23.01 27.41v44.14h-11.82v-42.75c0-11.82-3.77-18.99-14.96-18.99s-14.84 6.16-14.84 19.62v42.12h-11.69v-70.67z"/><path d="m288.95 939.51v-34.33h-7.04l-.12-8.93c7.92 0 11.69-3.77 11.69-15.22h7.29v14.08h15.47v10.06h-15.47v32.69c0 16.6.63 18.74 16.1 17.86v10.69c-22.01 2.26-27.92-5.53-27.92-26.91"/><path d="m327.65 939.26v-17.1c0-17.23 9.81-28.04 26.66-28.04s26.53 10.06 26.53 27.41v12.2h-41.5v7.92c0 10.06 6.54 15.59 14.96 15.59s14.84-5.41 14.84-13.2v-1.13h11.69v.5c0 12.95-9.81 23.64-26.53 23.64s-26.66-10.81-26.66-27.79m41.51-14.08v-4.4c0-11.7-5.66-16.73-14.84-16.73s-14.96 5.41-14.96 15.72v5.41z"/><path d="m395.57 895.12h11.07v12.83c2.14-8.43 9.68-14.34 20.5-13.71v11.69c-13.08-.63-19.87 5.91-19.87 18.99v40.87h-11.69v-70.67z"/><path d="m440.35 895.12h11.07v9.93c2.01-4.65 8.55-10.82 19.24-10.82 14.21 0 23.01 9.81 23.01 27.41v44.14h-11.82v-42.75c0-11.82-3.77-18.99-14.96-18.99s-14.84 6.16-14.84 19.62v42.12h-11.69v-70.67z"/><path d="m507.79 939.26v-17.1c0-17.23 9.81-28.04 26.66-28.04s26.53 10.06 26.53 27.41v12.2h-41.5v7.92c0 10.06 6.54 15.59 14.96 15.59s14.84-5.41 14.84-13.2v-1.13h11.69v.5c0 12.95-9.81 23.64-26.53 23.64s-26.66-10.81-26.66-27.79m41.5-14.08v-4.4c0-11.7-5.66-16.73-14.84-16.73s-14.96 5.41-14.96 15.72v5.41z"/><path d="m575.7 871.23h11.69v33.83c2.39-7.42 10.19-10.94 18.99-10.94 12.45 0 22.64 7.92 22.64 26.28v45.4h-11.82v-43.13c0-11.82-3.27-18.61-14.96-18.61s-14.84 6.16-14.84 19.62v42.12h-11.69v-94.56z"/><path d="m645.04 895.12h11.07v8.3c1.76-3.65 6.66-9.18 16.1-9.18 7.54 0 14.08 3.65 17.6 11.32 2.39-5.79 9.18-11.32 18.99-11.32 12.32 0 18.99 9.18 18.99 25.02v46.53h-11.82v-48.66c0-8.68-4.02-13.58-11.82-13.58s-11.82 4.65-11.82 13.08v49.17h-11.82v-48.66c0-9.18-4.4-13.58-11.82-13.58s-11.95 4.53-11.95 13.08v49.17h-11.69v-70.67z"/><path d="m742.22 939.26v-17.1c0-17.23 9.81-28.04 26.66-28.04s26.53 10.06 26.53 27.41v12.2h-41.5v7.92c0 10.06 6.54 15.59 14.96 15.59s14.84-5.41 14.84-13.2v-1.13h11.69v.5c0 12.95-9.81 23.64-26.53 23.64s-26.66-10.81-26.66-27.79m41.51-14.08v-4.4c0-11.7-5.66-16.73-14.84-16.73s-14.96 5.41-14.96 15.72v5.41z"/><path d="m810.14 895.12h11.07v9.93c2.01-4.65 8.55-10.82 19.24-10.82 14.21 0 23.01 9.81 23.01 27.41v44.14h-11.82v-42.75c0-11.82-3.77-18.99-14.96-18.99s-14.84 6.16-14.84 19.62v42.12h-11.69v-70.67z"/><path d="m876.29 941.52h11.69c0 10.06 6.16 15.47 15.59 15.47 8.17 0 14.34-4.15 14.34-10.81 0-15.47-39.61-5.79-39.61-32.07 0-12.57 9.18-19.99 24.77-19.99 17.1 0 25.9 8.42 25.9 24.65h-11.07c0-10.81-5.16-14.59-14.84-14.59-8.8 0-13.2 3.65-13.2 9.68 0 17.1 39.86 6.66 39.86 32.44 0 12.58-9.05 20.75-26.16 20.75s-27.29-9.68-27.29-25.53"/><path d="m954.53 956.11v9.68h-11.07v-94.56h11.69v32.57c2.01-4.65 7.92-9.56 18.61-9.56 14.21 0 23.01 9.81 23.01 27.41v17.61c0 17.98-8.8 27.66-23.01 27.66-11.44 0-16.22-4.9-19.24-10.82m15.48 1.14c9.81 0 14.96-6.92 14.96-19.49v-14.46c0-12.2-5.03-19.24-14.96-19.24-9.3 0-14.84 6.41-14.84 18.61v15.09c0 12.7 5.28 19.49 14.84 19.49"/><path d="m1010.23 939.26v-17.1c0-17.23 9.81-28.04 26.66-28.04s26.53 10.06 26.53 27.41v12.2h-41.5v7.92c0 10.06 6.54 15.59 14.96 15.59s14.84-5.41 14.84-13.2v-1.13h11.69v.5c0 12.95-9.81 23.64-26.53 23.64s-26.66-10.81-26.66-27.79m41.5-14.08v-4.4c0-11.7-5.66-16.73-14.84-16.73s-14.96 5.41-14.96 15.72v5.41z"/><path d="m1078.14 895.12h11.06v12.83c2.14-8.43 9.68-14.34 20.5-13.71v11.69c-13.08-.63-19.87 5.91-19.87 18.99v40.87h-11.69z"/><path d="m1119.91 939.26v-17.6c0-18.11 9.31-27.54 22.89-27.54 10.81 0 17.23 6.29 19.24 10.81v-9.81h11.06v70.67h-11.06v-9.68c-2.01 4.65-8.43 10.82-19.24 10.82-14.08 0-22.89-9.81-22.89-27.67m26.66 17.86c9.68 0 14.84-6.79 14.84-19.49v-14.96c0-12.32-5.53-18.74-14.84-18.74s-14.84 6.67-14.84 19.24v14.46c0 12.83 5.03 19.49 14.84 19.49"/><path d="m1192.88 939.51v-34.33h-7.04l-.13-8.93c7.92 0 11.69-3.77 11.69-15.22h7.29v14.08h15.47v10.06h-15.47v32.69c0 16.6.63 18.74 16.1 17.86v10.69c-22.01 2.26-27.92-5.53-27.92-26.91"/><path d="m1233.06 940.39v-45.27h11.69v46.9c0 9.56 7.04 14.34 14.96 14.34s14.84-5.28 14.84-14.34v-46.9h11.82v45.27c0 16.1-10.56 26.66-26.66 26.66s-26.66-10.56-26.66-26.66"/><path d="m1302.33 895.12h11.06v9.93c2.01-4.65 8.55-10.82 19.24-10.82 14.21 0 23.01 9.81 23.01 27.41v44.14h-11.82v-42.75c0-11.82-3.77-18.99-14.96-18.99s-14.84 6.16-14.84 19.62v42.12h-11.69v-70.67z"/><path d="m1370.83 971.45h11.44c0 6.04 3.9 11.82 14.46 11.82s14.71-4.9 14.71-14.46v-12.7c-2.01 4.78-7.8 10.82-18.61 10.82-14.08 0-22.89-9.81-22.89-27.66v-17.61c0-17.23 8.55-27.16 21.76-27.16 10.69 0 18.23 4.9 20.37 10.44v-9.81h11.06v71.3c0 16.98-5.91 26.16-26.41 26.16s-25.9-10.31-25.9-21.13m25.79-13.84c9.31 0 14.84-6.29 14.84-18.86v-17.98c0-11.19-5.78-16.85-14.84-16.85-9.68 0-14.84 6.66-14.84 19.24v14.96c0 12.83 5.03 19.49 14.84 19.49"/><path d="m1438.15 939.26v-17.1c0-17.23 9.81-28.04 26.66-28.04s26.53 10.06 26.53 27.41v12.2h-41.5v7.92c0 10.06 6.54 15.59 14.96 15.59s14.84-5.41 14.84-13.2v-1.13h11.69v.5c0 12.95-9.81 23.64-26.53 23.64s-26.66-10.81-26.66-27.79m41.51-14.08v-4.4c0-11.7-5.66-16.73-14.84-16.73s-14.96 5.41-14.96 15.72v5.41z"/><path d="m1506.19 895.12h11.06v9.93c2.01-4.65 8.55-10.82 19.24-10.82 14.21 0 23.01 9.81 23.01 27.41v44.14h-11.82v-42.75c0-11.82-3.77-18.99-14.96-18.99s-14.84 6.16-14.84 19.62v42.12h-11.69v-70.67z"/><path d="m884.52 639.82h-174.13v-266.66h161.76c51.3 0 87.82 21.71 87.82 72.25 0 44.71-29.27 59.62-30.78 60.27 2.11.32 40.74 9.4 40.74 58.32 0 52.49-34.1 75.82-85.41 75.82m-17.51-235.23h-121.92v92.34h132.48c31.39 0 47.08-22.36 47.08-46.66 0-28.19-18.11-45.68-57.64-45.68m24.15 123.44h-146.07v78.73h146.07c30.48 0 43.16-17.82 43.16-40.82s-12.68-37.91-43.16-37.91"/><path d="m1134.01 639.82h-124.03v-266.66h128.86c86.61 0 130.67 51.84 130.67 134.46s-50.1 132.19-135.5 132.19m-2.72-235.22h-86.61v202.18h83.6c83.59 0 105.32-57.03 105.32-103.03s-18.71-99.15-102.31-99.15"/><path d="m1524.5 535.49v-162.33h35.01v165.57c0 76.47-56.44 107.57-126.45 107.57s-126.15-31.11-126.15-107.57v-165.57h34.7v162c0 6.48.6 16.2 3.02 25.6 4.53 17.17 23.54 51.84 88.42 51.84 91.44 0 91.44-63.18 91.44-77.11"/><path d="m639.84 639.84h-71.09v-497.65h71.09zm-142.19-373.24h-71.09v373.24h71.09zm-142.18 106.56h-71.09v266.68h71.09zm-142.19 123.77h-71.09v142.91h71.09z"/><path d="m142.19 142.19v142.18l142.18-142.18z"/></g><path d="m710.73 242.19h9.6l19.6 45.5 19.7-45.5h9.6v70.5h-9.8v-49l-16 36.8h-7l-15.9-36.6v48.8h-9.8z"/><path d="m769.73 313.19h-10.8v-47.1l-15.17 34.9h-7.66l-15.07-34.7v46.9h-10.8v-71.5h10.43l19.27 44.74 19.37-44.74h10.43zm-9.8-1h8.8v-69.5h-8.77l-20.03 46.26-19.93-46.26h-8.77v69.5h8.8v-50.71l16.73 38.51h6.34l16.83-38.71z"/><g clip-path="url(#b)"><path d="m787.7 236.48c3.3 0 5.9 2.6 5.9 5.9s-2.6 5.9-5.9 5.9-5.9-2.6-5.9-5.9 2.6-5.9 5.9-5.9m-4.7 20.01h9.3v56.2h-9.3z"/><path d="m792.8 313.19h-10.3v-57.2h10.3zm-9.3-1h8.3v-55.2h-8.3zm4.2-63.4c-3.59 0-6.4-2.81-6.4-6.4s2.81-6.4 6.4-6.4 6.4 2.81 6.4 6.4-2.81 6.4-6.4 6.4m0-11.8c-3.03 0-5.4 2.37-5.4 5.4s2.37 5.4 5.4 5.4 5.4-2.37 5.4-5.4-2.37-5.4-5.4-5.4"/><path d="m807.83 291.79v-27.3h-5.6l-.1-7.1c6.3 0 9.3-3 9.3-12.1h5.8v11.2h12.3v8h-12.3v26c0 13.2.5 14.9 12.8 14.2v8.5c-17.5 1.8-22.2-4.4-22.2-21.4"/><path d="m824.76 313.99c-5.6 0-9.55-1.17-12.23-3.59-3.65-3.29-5.2-8.85-5.2-18.6v-26.8h-5.59l-.11-8.1h.51c5.28 0 8.8-1.97 8.8-11.6v-.5h6.8v11.2h12.3v9h-12.3v25.5c0 7.26.19 10.63 1.98 12.32 1.65 1.56 4.9 1.69 10.3 1.39l.53-.03v9.48l-.45.05c-1.92.2-3.69.3-5.32.3m-22.06-50.02h5.61v27.8c0 9.44 1.46 14.78 4.87 17.86 3.18 2.87 8.37 3.85 16.33 3.09v-7.52c-5.37.28-8.66.07-10.51-1.69-2.18-2.06-2.29-6.09-2.29-13.04v-26.5h12.3v-7h-12.3v-11.2h-4.8c-.1 8.37-2.83 11.92-9.29 12.09l.09 6.11z"/><path d="m839.48 317.19h9.1c0 4.8 3.1 9.4 11.5 9.4s11.7-3.9 11.7-11.5v-10.1c-1.6 3.8-6.2 8.6-14.8 8.6-11.2 0-18.2-7.8-18.2-22v-14c0-13.7 6.8-21.6 17.3-21.6 8.5 0 14.5 3.9 16.2 8.3v-7.8h8.8v56.7c0 13.5-4.7 20.8-21 20.8s-20.6-8.2-20.6-16.8m20.5-11c7.4 0 11.8-5 11.8-15v-14.3c0-8.9-4.6-13.4-11.8-13.4-7.7 0-11.8 5.3-11.8 15.3v11.9c0 10.2 4 15.5 11.8 15.5"/><path d="m860.08 334.49c-14 0-21.1-5.82-21.1-17.3v-.5h10.1v.5c0 5.57 4.11 8.9 11 8.9 7.75 0 11.2-3.39 11.2-11v-8.07c-2.33 3.68-7.02 7.07-14.3 7.07-11.71 0-18.7-8.41-18.7-22.5v-14c0-13.63 6.82-22.1 17.8-22.1 7.89 0 13.28 3.18 15.7 6.78v-6.28h9.8v57.2c0 15.13-6.23 21.3-21.5 21.3m-20.1-16.8c.21 10.49 6.97 15.8 20.1 15.8 14.75 0 20.5-5.69 20.5-20.3v-56.2h-7.8v9.98l-.97-2.5c-1.48-3.84-7.04-7.98-15.73-7.98-10.52 0-16.8 7.89-16.8 21.1v14c0 13.66 6.45 21.5 17.7 21.5 8 0 12.65-4.29 14.34-8.29l.96-2.28v12.58c0 8.19-3.88 12-12.2 12-10.43 0-11.85-6.65-11.99-9.4h-8.11zm20-11c-8.05 0-12.3-5.53-12.3-16v-11.9c0-10.34 4.25-15.8 12.3-15.8s12.3 5.07 12.3 13.9v14.3c0 10-4.37 15.5-12.3 15.5m0-42.7c-9.34 0-11.3 8.05-11.3 14.8v11.9c0 9.95 3.8 15 11.3 15s11.3-5.01 11.3-14.5v-14.3c0-8.32-4.01-12.9-11.3-12.9"/><path d="m894.33 236.79h9.4v75.9h-9.4z"/><path d="m904.23 313.19h-10.4v-76.9h10.4zm-9.4-1h8.4v-74.9h-8.4z"/><path d="m921.52 236.48c3.3 0 5.9 2.6 5.9 5.9s-2.6 5.9-5.9 5.9-5.9-2.6-5.9-5.9 2.6-5.9 5.9-5.9m-4.7 20.01h9.3v56.2h-9.3z"/><path d="m926.62 313.19h-10.3v-57.2h10.3zm-9.3-1h8.3v-55.2h-8.3zm4.2-63.4c-3.59 0-6.4-2.81-6.4-6.4s2.81-6.4 6.4-6.4 6.4 2.81 6.4 6.4-2.81 6.4-6.4 6.4m0-11.8c-3.03 0-5.4 2.37-5.4 5.4s2.37 5.4 5.4 5.4 5.4-2.37 5.4-5.4-2.37-5.4-5.4-5.4"/><path d="m937.64 291.59v-13.6c0-13.7 7.8-22.3 21.2-22.3s21.1 8 21.1 21.8v9.7h-33v6.3c0 8 5.2 12.4 11.9 12.4s11.8-4.3 11.8-10.5v-.9h9.3v.4c0 10.3-7.8 18.8-21.1 18.8s-21.2-8.6-21.2-22.1m33-11.2v-3.5c0-9.3-4.5-13.3-11.8-13.3s-11.9 4.3-11.9 12.5v4.3z"/><path d="m958.84 314.19c-13.39 0-21.7-8.66-21.7-22.6v-13.6c0-14.28 8.11-22.8 21.7-22.8s21.6 8.34 21.6 22.3v10.2h-33v5.8c0 7.23 4.47 11.9 11.4 11.9s11.3-4.02 11.3-10v-1.4h10.3v.9c0 11.36-8.88 19.3-21.6 19.3m0-58c-12.96 0-20.7 8.15-20.7 21.8v13.6c0 13.53 7.74 21.6 20.7 21.6 12.09 0 20.55-7.48 20.6-18.2h-8.3v.4c0 6.48-5.06 11-12.3 11s-12.4-5.18-12.4-12.9v-6.8h33v-9.2c0-13.54-7.51-21.3-20.6-21.3m12.3 24.7h-24.7v-4.8c0-8.14 4.64-13 12.4-13s12.3 4.77 12.3 13.8zm-23.7-1h22.7v-3c0-8.49-3.8-12.8-11.3-12.8s-11.4 4.37-11.4 12z"/><path d="m990.35 291.59v-14c0-14 7-21.8 18.3-21.8 8.5 0 12.7 3.9 14.3 7.6v-25.9h9.8v75.21h-8.8v-7.7c-2.1 4.1-5.9 8.6-15.3 8.6-11.3 0-18.3-7.7-18.3-22m21.31 14.29c7.6 0 11.8-5.4 11.8-15.5v-12c0-9.7-4.4-14.8-11.8-14.8-7.9 0-11.9 5.6-11.9 15.3v11.5c0 10 4.1 15.5 11.9 15.5"/><path d="m1008.66 314.09c-11.95 0-18.8-8.2-18.8-22.5v-14c0-13.96 7.03-22.3 18.8-22.3 8.17 0 12.05 3.52 13.8 6.15v-24.45h10.8v76.21h-9.8v-6.31c-2.19 3.47-6.18 7.21-14.8 7.21m0-57.81c-11.31 0-17.8 7.76-17.8 21.3v14c0 13.67 6.49 21.5 17.8 21.5 9.49 0 13.02-4.75 14.86-8.33l.94-1.84v9.27h7.8v-74.21h-8.8v27.82l-.96-2.22c-.95-2.19-4.2-7.3-13.84-7.3m3 50.11c-8 0-12.4-5.68-12.4-16v-11.5c0-10.19 4.4-15.8 12.4-15.8s12.3 5.58 12.3 15.3v12c0 10.32-4.37 16-12.3 16m0-42.3c-9.42 0-11.4 8.05-11.4 14.8v11.5c0 6.84 1.98 15 11.4 15 7.39 0 11.3-5.19 11.3-15v-12c0-9.22-4.01-14.3-11.3-14.3"/><path d="m1077.15 236.48c3.3 0 5.9 2.6 5.9 5.9s-2.6 5.9-5.9 5.9-5.9-2.6-5.9-5.9 2.6-5.9 5.9-5.9m-4.7 20.01h9.3v56.2h-9.3z"/><path d="m1082.25 313.19h-10.3v-57.2h10.3zm-9.3-1h8.3v-55.2h-8.3zm4.2-63.4c-3.59 0-6.4-2.81-6.4-6.4s2.81-6.4 6.4-6.4 6.4 2.81 6.4 6.4-2.81 6.4-6.4 6.4m0-11.8c-3.03 0-5.4 2.37-5.4 5.4s2.37 5.4 5.4 5.4 5.4-2.37 5.4-5.4-2.37-5.4-5.4-5.4"/><path d="m1094.88 256.49h8.8v6.6c1.4-2.9 5.3-7.3 12.8-7.3 6 0 11.2 2.9 14 9 1.9-4.6 7.3-9 15.1-9 9.8 0 15.1 7.3 15.1 19.9v37h-9.4v-38.7c0-6.9-3.2-10.8-9.4-10.8s-9.4 3.7-9.4 10.4v39.1h-9.4v-38.7c0-7.3-3.5-10.8-9.4-10.8s-9.5 3.6-9.5 10.4v39.1h-9.3z"/><path d="m1161.18 313.19h-10.4v-39.2c0-4.7-1.54-10.3-8.9-10.3-5.82 0-8.9 3.42-8.9 9.9v39.6h-10.4v-39.2c0-6.74-3.08-10.3-8.9-10.3s-9 3.42-9 9.9v39.6h-10.3v-57.2h9.8v5.27c2.17-3.11 6.27-5.97 12.3-5.97s11.15 2.95 13.99 8.35c2.25-4.3 7.58-8.35 15.11-8.35 9.91 0 15.6 7.44 15.6 20.4zm-9.4-1h8.4v-36.5c0-12.51-5.19-19.4-14.6-19.4-7.63 0-12.85 4.36-14.64 8.69l-.44 1.06-.48-1.04c-2.58-5.62-7.39-8.71-13.55-8.71-6.61 0-10.71 3.62-12.35 7.02l-.95 1.97v-8.28h-7.8v55.2h8.3v-38.6c0-7.03 3.55-10.9 10-10.9s9.9 4.01 9.9 11.3v38.2h8.4v-38.6c0-7.03 3.52-10.9 9.9-10.9s9.9 4.01 9.9 11.3v38.2z"/></g></g></svg>