<svg viewBox="0 0 1000 1059.4" xmlns="http://www.w3.org/2000/svg"><g fill="#fff" opacity=".3"><path d="m395.5 55.4c-15.7-1.2-31.8-1.7-47.9-1.7s-32.2.5-48.1 1.7v304c15.7-2.2 31.8-3.4 48.1-3.4s32.2 1 47.9 3.4z"/><path d="m0 154v46.3l132.5 229.7c25.1-19.7 53.2-35.9 83.1-48.1l-151.8-263.3c-21.9 10.5-43.2 22.4-63.8 35.4z"/><path d="m671.8 574.4 263.3-151.9c-14-29.1-30.1-56.8-48.1-83.1l-263.3 151.9c19.9 25.1 36.1 53.2 48.1 83.1z"/><path d="m23.2 574.4c12.1-29.9 28.4-58 48.1-83.1l-71.3-41.2v110.9z"/><path d="m556.5 263.1c29.9 12.2 58 28.4 83.2 48.2l151.9-263.2c-26.3-18-54.1-34.1-83-48.1z"/><path d="m23.2 838-23.2 13.4v110.9l71.3-41.1c-19.8-25.2-36.1-53.2-48.1-83.2z"/><path d="m935.1 990-263.3-151.9c-12 29.9-28.2 58-47.9 83.2l239.3 138.2h32.9c14.4-22.2 27.5-45.5 39-69.4z"/><path d="m694.3 658.2c2.2 15.7 3.4 31.8 3.4 48.1s-1 32.2-3.4 47.9h304c1.2-15.7 1.7-31.8 1.7-47.9s-.5-32.2-1.7-48.1z"/><path d="m.8 658.2h-.8v5.9c.2-2 .5-4 .8-5.9z"/><path d="m0 748.6v5.6h.8c-.3-1.9-.5-3.7-.8-5.6z"/></g></svg>