<svg viewBox="0 0 600 493.4" xmlns="http://www.w3.org/2000/svg"><path d="m449.1 385.3c-5.5 13.8-13 26.7-22 38.2l121 69.9c8.3-12.1 15.7-24.9 22.1-38.2zm-298.2 0-121.1 69.9c6.4 13.3 13.8 26.1 22.1 38.2l121.1-69.9c-9.1-11.6-16.6-24.5-22.1-38.2m-10.3-82.7h-139.8c-.6 7.3-.8 14.6-.8 22.1s.2 14.8.8 22h139.8c-1.1-7.2-1.6-14.6-1.6-22s.6-14.9 1.6-22.1m32.4-76.7-121.1-69.9c-8.3 12.1-15.7 24.9-22.1 38.2l121.1 69.9c5.6-13.8 13.1-26.7 22.1-38.2m28.2-28.2c11.6-9 24.5-16.5 38.2-22.1l-69.9-121.1c-13.3 6.4-26 13.8-38.2 22.1zm98.8-34c7.5 0 14.8.5 22 1.6v-139.8c-7.2-.5-14.6-.8-22-.8s-14.8.2-22.1.8v139.8c7.2-1 14.6-1.6 22.1-1.6m134.3-20.5 69.9-121.1c-12.1-8.3-24.9-15.7-38.2-22.1l-69.9 121c13.8 5.6 26.7 13.1 38.2 22.2m14.8 120.9 121.1-69.9c-6.4-13.4-13.8-26.1-22.1-38.2l-121.1 69.9c9.1 11.6 16.6 24.5 22.1 38.2m150.9 60.6c0-7.5-.2-14.8-.8-22.1h-139.8c1 7.2 1.6 14.6 1.6 22.1s-.5 14.8-1.6 22h139.8c.6-7.2.8-14.6.8-22" fill="#f7f8fc"/></svg>