<svg viewBox="0 0 1000 737.1" xmlns="http://www.w3.org/2000/svg"><g fill="#f7f8fc"><path d="m385.9 365.2c-16-2.4-32.2-3.5-48.7-3.5s-32.9 1.2-48.8 3.5v-308.9c16.2-1.2 32.3-1.7 48.8-1.7s32.7.5 48.7 1.7zm318.1-365.2c29.4 14.2 57.5 30.6 84.3 48.8l-154.4 267.5c-25.5-20.2-54.1-36.7-84.5-49zm-37.4 583.5c-12.2-30.4-28.7-58.9-48.8-84.5l267.5-154.3c18.2 26.8 34.6 54.9 48.8 84.5z"/><path d="m998.3 668.6h-308.9c2.3 16 3.5 32.3 3.5 48.8s-.2 13.1-.5 19.6h307.4s0 0 0 0c.2-6.5.3-13.1.3-19.6 0-16.5-.5-32.7-1.7-48.8z"/><path d="m203.3 388-154.4-267.5c-16.7 8-33 16.8-48.9 26.3v84.2l118.8 205.9c25.6-20 54.1-36.5 84.5-48.8z"/><path d="m56.6 499-56.6-32.6v112.6l7.7 4.5c12.3-30.4 28.9-58.9 48.8-84.5z"/><path d="m788.3 48.8c-26.8-18.2-54.9-34.6-84.3-48.8l-154.5 267.3c30.4 12.4 58.9 28.9 84.5 49z"/><path d="m288.4 56.3v308.9c16-2.3 32.3-3.5 48.8-3.5s32.7 1.1 48.7 3.5v-308.9c-16-1.2-32.3-1.7-48.7-1.7s-32.7.5-48.8 1.7z"/><path d="m617.8 499c20.2 25.5 36.7 54.1 48.8 84.5l267.5-154.3c-14.3-29.5-30.6-57.7-48.8-84.5z"/></g></svg>