<svg viewBox="0 0 1000 1052.3" xmlns="http://www.w3.org/2000/svg"><g fill="#114460"><path d="m16.8 692.6c0-15.9 1.2-31.7 3.4-47.1h-20.2v94.1h20.2c-2.3-15.4-3.4-31-3.4-47z"/><path d="m0 538.9 42.2 24.3c11.9-29.4 27.9-56.9 47.1-81.5l-89.3-51.5z"/><path d="m230.9 374.5-149-258.2c-28.4 13.6-55.5 29.5-81.5 47.1l149 258.2c24.7-19.3 52.2-35.2 81.5-47.1z"/><path d="m42.2 821.8-42.2 24.3v108.8l89.3-51.5c-19.5-24.7-35.4-52.2-47.1-81.6z"/><path d="m936.4 414.3c-13.8-28.5-29.5-55.7-47.1-81.5l-258.2 149c19.5 24.7 35.4 52.2 47.2 81.5l258.2-149z"/><path d="m998.3 739.6c1.2-15.4 1.7-31.2 1.7-47s-.5-31.5-1.7-47.1h-298.1c2.2 15.4 3.4 31.2 3.4 47.1s-1 31.5-3.4 47z"/><path d="m678.2 821.8c-11.7 29.4-27.7 56.9-47 81.6l258 149c17.6-25.9 33.5-53.2 47.1-81.6l-258.2-149z"/><path d="m795.6 47.1c-25.8-17.6-53-33.3-81.3-47.1l-149.2 258c29.4 11.9 56.9 27.9 81.5 47.3z"/><path d="m407.2 54.4c-15.4-1.2-31.2-1.7-47-1.7s-31.5.5-47.1 1.7v298.1c15.4-2.2 31.2-3.4 47.1-3.4s31.5 1 47 3.4z"/></g></svg>